<svg width="32" height="32" viewBox="0 0 32 32" fill="none" xmlns="http://www.w3.org/2000/svg">
<path d="M30.2223 16V26.4C30.2223 28.2856 30.2223 29.2284 29.6365 29.8142C29.0507 30.4 28.1079 30.4 26.2223 30.4H5.77783C4.84786 30.4 4.38287 30.4 4.00137 30.2978C2.9661 30.0204 2.15746 29.2117 1.88005 28.1764C1.77783 27.7949 1.77783 27.3299 1.77783 26.4V26.4C1.77783 25.47 1.77783 25.005 1.88005 24.6235C2.15746 23.5882 2.9661 22.7796 4.00137 22.5022C4.38287 22.4 4.84786 22.4 5.77783 22.4H26.2223C28.1079 22.4 29.0507 22.4 29.6365 21.8142C30.2223 21.2284 30.2223 20.2856 30.2223 18.4V5.59998C30.2223 3.71436 30.2223 2.77155 29.6365 2.18576C29.0507 1.59998 28.1079 1.59998 26.2223 1.59998H5.77783C3.89221 1.59998 2.9494 1.59998 2.36362 2.18576C1.77783 2.77155 1.77783 3.71436 1.77783 5.59998V26.4" stroke="#292D32" stroke-width="2"/>
<path d="M10.6665 12.8L13.5531 15.3979C13.9334 15.7402 14.5107 15.7402 14.891 15.3979L21.3332 9.59998" stroke="#292D32" stroke-width="2" stroke-linecap="round"/>
</svg>
