<svg width="32" height="32" viewBox="0 0 32 32" fill="none" xmlns="http://www.w3.org/2000/svg">
<path d="M6.73682 8.91922V5.97843C6.73682 3.86962 6.73682 2.81522 7.41201 2.21821C8.08721 1.6212 9.13368 1.75031 11.2266 2.00853L25.0505 3.71407C27.5573 4.02335 28.8107 4.17799 29.5632 5.02909C30.3158 5.8802 30.3158 7.1431 30.3158 9.66891V22.3312C30.3158 24.857 30.3158 26.1199 29.5632 26.971C28.8107 27.8221 27.5573 27.9767 25.0505 28.286L11.2266 29.9916C9.13367 30.2498 8.08721 30.3789 7.41201 29.7819C6.73682 29.1849 6.73682 28.1305 6.73682 26.0217V23.3687" stroke="#292D32" stroke-width="2"/>
<path d="M21.8945 16L22.6281 15.3205L23.2576 16L22.6281 16.6796L21.8945 16ZM1.68401 17C1.13172 17 0.684006 16.5523 0.684006 16C0.684006 15.4477 1.13172 15 1.68401 15V17ZM15.8913 8.04773L22.6281 15.3205L21.1609 16.6796L14.4241 9.40686L15.8913 8.04773ZM22.6281 16.6796L15.8913 23.9523L14.4241 22.5932L21.1609 15.3205L22.6281 16.6796ZM21.8945 17H1.68401V15H21.8945V17Z" fill="#292D32"/>
</svg>
