<svg width="60" height="54" viewBox="0 0 60 54" fill="none" xmlns="http://www.w3.org/2000/svg">
<path d="M5.62459 21.2911C5.15766 21.2911 4.78174 21.6185 4.78174 22.025V32.712C4.78174 33.1185 5.15766 33.4458 5.62459 33.4458C6.09151 33.4458 6.46736 33.1185 6.46736 32.712V22.025C6.46736 21.6185 6.09151 21.2911 5.62459 21.2911Z" fill="#14CC5E"/>
<path d="M5.58707 34.3044C6.84166 34.3044 7.85871 33.3249 7.85871 32.1167C7.85871 30.9084 6.84166 29.929 5.58707 29.929C4.33248 29.929 3.31543 30.9084 3.31543 32.1167C3.31543 33.3249 4.33248 34.3044 5.58707 34.3044Z" fill="#14CC5E"/>
<path d="M3.18945 38.4259L5.58762 31.6381L7.98578 38.4259H3.18945Z" fill="#14CC5E"/>
<path d="M47.3271 31.0819L58.9632 22.9234C60.6043 21.9398 60.1615 20.7095 58.5854 19.3451L35.0111 2.95652C32.0691 0.720842 31.6766 1.32614 32.1399 2.88496L31.6865 31.2966L47.3271 31.0819Z" fill="#14CC5E"/>
<path d="M12.673 31.0274L1.03696 22.8689C-0.604143 21.8854 -0.161416 20.6551 1.41475 19.2906L24.989 2.90208C27.931 0.6664 28.3235 1.2717 27.8602 2.83051L28.3136 31.2421L12.673 31.0274Z" fill="#14CC5E"/>
<path d="M24.8862 3.17119C25.9523 2.37851 25.746 2.13567 28.2864 0.666391C29.8006 -0.43085 30.6815 0.0716859 31.6109 0.451694L34.0288 2.24084L33.5755 32.0122H25.8685L24.8862 3.17119Z" fill="#14CC5E"/>
<path d="M47.3267 31.0103L46.5711 41.602C46.3684 43.5733 45.4709 44.1444 44.2288 45.2518L31.4594 53.4819L29.9482 53.625L30.1749 31.1534L47.3267 31.0103Z" fill="#14CC5E"/>
<path d="M12.6455 31.0103L13.4011 41.602C13.6038 43.5733 14.5014 44.1444 15.7434 45.2518L28.5128 53.4819L30.024 53.625L29.7973 31.1534L12.6455 31.0103Z" fill="#14CC5E"/>
<path d="M28.3994 53.4103C29.6135 54.2751 30.6223 54.1033 31.5351 53.4461L31.044 31.368L28.5505 31.4038L28.3994 53.4103Z" fill="#14CC5E"/>
<path d="M12.5996 30.4819L12.7599 31.8988L47.0607 32.0507L47.5415 29.6722L12.5996 30.4819Z" fill="#14CC5E"/>
<mask id="mask0_252_1167" style="mask-type:luminance" maskUnits="userSpaceOnUse" x="4" y="7" width="50" height="40">
<path d="M50.7394 7.68054C51.3344 8.18451 51.1119 8.93885 50.3469 9.85939L45.9724 17.4655C46.0106 17.5899 45.3425 18.8873 44.6146 19.0014C44.512 18.9869 44.4072 18.9771 44.301 18.9707C44.2838 18.9643 44.2666 18.9584 44.2495 18.9503L44.283 18.9689C44.2482 18.967 44.2157 18.9599 44.1805 18.9589C42.0472 18.8943 40.2637 20.6996 40.4386 22.7089C40.4765 23.1434 40.5941 23.5622 40.7934 23.9556C40.8933 24.1526 41.1481 24.4054 41.1229 24.6344C41.0775 25.0472 40.3817 25.595 40.1209 25.9182C39.3329 26.8944 38.4914 27.8321 37.6975 28.8042C37.4432 29.1157 37.0322 29.8226 36.6506 29.9799C36.341 30.1075 35.6502 29.7589 35.295 29.739C34.764 29.7094 34.0613 30.0443 33.5868 29.9543C33.3399 29.9076 33.13 29.5406 32.9922 29.3626C32.5705 28.8178 31.6592 28.0715 31.4799 27.4178C31.4237 27.2131 31.7361 26.9083 31.8349 26.7336C32.0735 26.3115 32.1992 25.8193 32.2437 25.343C32.4443 23.1983 30.2997 21.4411 28.1086 21.7067C26.2041 21.9377 24.8639 23.5265 24.925 25.319C24.9425 25.8347 25.5925 26.8702 25.2513 27.2364C24.2346 28.3279 23.0842 29.3298 22.0075 30.3687C21.638 30.7254 21.1159 31.4735 20.6205 31.6513C20.3025 31.7655 19.4848 31.3084 19.1136 31.2573C17.9549 31.0979 16.7704 31.5258 15.9682 32.3214C14.9205 33.3607 14.7656 34.8953 15.3243 36.1267C15.429 36.6912 14.9387 37.2254 14.0302 37.7384L7.06958 43.3557C7.0563 43.5062 5.54208 44.822 4.89941 44.1574L6.86469 46.4855C6.74981 45.7124 7.13566 45.084 7.98429 44.5894L15.1132 38.7656C15.9259 38.0342 16.559 37.8114 17.0981 37.8549C17.2506 37.9175 17.4101 37.9713 17.5777 38.0132C17.6421 38.0293 17.7065 38.038 17.7709 38.0509C17.7762 38.0535 17.7815 38.0557 17.7867 38.0583L17.7804 38.0528C20.0116 38.4954 22.196 37.0562 22.3053 34.8154C22.3273 34.365 22.2501 33.8966 22.0748 33.4784C22.0017 33.3043 21.7573 32.9793 21.822 32.7896C21.9409 32.4411 22.5857 32.0233 22.8576 31.761L25.464 29.2459C25.7531 28.9669 26.2425 28.2705 26.6496 28.1763C27 28.0952 27.6974 28.5435 28.0934 28.5885C28.7243 28.6602 29.466 28.3023 30.0336 28.4029C30.2969 28.4495 30.4842 28.8047 30.6292 28.9895C30.9737 29.4285 31.3255 29.8635 31.6741 30.2995C31.8235 30.4864 32.0865 30.7056 32.1135 30.9515C32.147 31.2553 31.7011 31.7408 31.5885 32.0395C31.3345 32.713 31.3028 33.4784 31.508 34.1653C32.1692 36.3778 35.0242 37.3477 37.0453 36.1157C38.2638 35.373 38.895 33.9211 38.6449 32.5795C38.5461 32.0496 37.7941 31.1789 38.1412 30.7419C39.0538 29.5928 40.0521 28.5019 40.9884 27.3699C41.3927 26.8811 41.8792 26.0016 42.4443 25.6841C42.7527 25.5109 43.5414 25.8814 43.9168 25.8933C45.1159 25.931 46.3092 25.4481 47.0287 24.5164C48.1105 23.1155 47.8751 21.327 46.8268 20.1624C46.6114 19.5687 46.7743 18.9497 47.2931 18.307L51.7464 10.451C52.4489 9.05417 53.2039 8.79459 53.9749 8.88352L50.7394 7.68054ZM43.9808 20.4778C44.0618 20.4748 44.1454 20.4755 44.2315 20.4803C46.7843 20.6199 46.668 24.4826 44.1033 24.3737C41.4512 24.261 41.4708 20.5712 43.9808 20.4778ZM28.4528 23.1977C28.5328 23.1946 28.6155 23.1953 28.7006 23.1999C31.2818 23.3405 31.1842 27.1973 28.5737 27.0862C25.9381 26.9741 25.9717 23.2929 28.4528 23.1977ZM35.0975 31.2564C35.1776 31.2572 35.2598 31.2618 35.3441 31.2706C37.9428 31.5406 37.3991 35.3735 34.8036 35.1439C32.1967 34.9133 32.6164 31.2314 35.0975 31.2564ZM18.5715 32.7542C18.7209 32.7522 18.878 32.7652 19.0425 32.7951C21.6402 33.2664 20.8661 37.0879 18.2736 36.6214C15.8112 36.1782 16.3295 32.7835 18.5715 32.7542Z" fill="white"/>
</mask>
<g mask="url(#mask0_252_1167)">
<path d="M47.1611 30.9193L58.7972 22.7608C60.4383 21.7772 59.9955 20.5469 58.4194 19.1825L34.8451 2.79392C31.9031 0.558245 31.5106 1.16354 31.9739 2.72236L31.5205 31.134L47.1611 30.9193Z" fill="white"/>
<path d="M12.507 30.8648L0.870942 22.7063C-0.770159 21.7228 -0.327432 20.4925 1.24874 19.128L24.823 2.73948C27.765 0.503802 28.1575 1.1091 27.6942 2.66791L28.1476 31.0795L12.507 30.8648Z" fill="white"/>
<path d="M24.7202 3.00859C25.7863 2.21591 25.58 1.97308 28.1204 0.503794C29.6346 -0.593448 30.5155 -0.0909117 31.4449 0.289096L33.8628 2.07824L33.4095 31.8496H25.7025L24.7202 3.00859Z" fill="white"/>
<path d="M47.1607 30.8477L46.4051 41.4394C46.2024 43.4107 45.3048 43.9818 44.0628 45.0892L31.2934 53.3193L29.7822 53.4624L30.0089 30.9908L47.1607 30.8477Z" fill="white"/>
<path d="M12.4795 30.8477L13.2351 41.4394C13.4378 43.4107 14.3353 43.9819 15.5774 45.0892L28.3468 53.3193L29.858 53.4624L29.6313 30.9908L12.4795 30.8477Z" fill="white"/>
<path d="M28.2334 53.2477C29.4475 54.1125 30.4563 53.9407 31.3691 53.2835L30.8779 31.2054L28.3845 31.2412L28.2334 53.2477Z" fill="white"/>
<path d="M12.4336 30.3193L12.5939 31.7362L46.8946 31.8881L47.3755 29.5096L12.4336 30.3193Z" fill="white"/>
</g>
</svg>
