<svg width="32" height="32" viewBox="0 0 32 32" fill="none" xmlns="http://www.w3.org/2000/svg">
<path d="M21.3334 24H30.2223L27.7245 21.752C27.3891 21.45 27.123 21.0916 26.9415 20.6971C26.76 20.3026 26.6666 19.8798 26.6667 19.4528V14.4C26.667 12.4143 25.9833 10.4773 24.7098 8.8558C23.4363 7.23427 21.6356 6.00792 19.5556 5.34558V4.79998C19.5556 3.95128 19.181 3.13735 18.5142 2.53723C17.8474 1.93712 16.943 1.59998 16.0001 1.59998C15.0571 1.59998 14.1527 1.93712 13.4859 2.53723C12.8191 3.13735 12.4445 3.95128 12.4445 4.79998V5.34558C8.30228 6.66398 5.33339 10.2208 5.33339 14.4V19.4544C5.33339 20.3152 4.95294 21.1424 4.27561 21.752L1.77783 24H10.6667M21.3334 24H10.6667M21.3334 24V25.6C21.3334 26.873 20.7715 28.0939 19.7713 28.9941C18.7711 29.8943 17.4145 30.4 16.0001 30.4C14.5856 30.4 13.229 29.8943 12.2288 28.9941C11.2286 28.0939 10.6667 26.873 10.6667 25.6V24" stroke="#292D32" stroke-width="2" stroke-linecap="round" stroke-linejoin="round"/>
</svg>
