<svg width="33" height="32" viewBox="0 0 33 32" fill="none" xmlns="http://www.w3.org/2000/svg">
<path d="M0.117676 8C0.117676 4.22876 0.117676 2.34315 1.28925 1.17157C2.46082 0 4.34644 0 8.11768 0H24.1177C27.8889 0 29.7745 0 30.9461 1.17157C32.1177 2.34315 32.1177 4.22876 32.1177 8V24C32.1177 27.7712 32.1177 29.6569 30.9461 30.8284C29.7745 32 27.8889 32 24.1177 32H8.11768C4.34644 32 2.46082 32 1.28925 30.8284C0.117676 29.6569 0.117676 27.7712 0.117676 24V8Z" fill="white"/>
<ellipse cx="16.1175" cy="12.4445" rx="7.11111" ry="7.11111" fill="#222222"/>
<path fill-rule="evenodd" clip-rule="evenodd" d="M28.5546 31.6245C28.5597 31.7506 28.4671 31.8596 28.3418 31.8744C27.2757 32 25.9095 32 24.1176 32H8.11763C6.3259 32 4.9598 32 3.89369 31.8744C3.76834 31.8596 3.67577 31.7507 3.68086 31.6246C3.91162 25.9074 9.39149 21.3334 16.1177 21.3334C22.844 21.3334 28.3238 25.9074 28.5546 31.6245Z" fill="#222222"/>
</svg>
