<svg width="561" height="483" viewBox="0 0 561 483" fill="none" xmlns="http://www.w3.org/2000/svg">
<path d="M94.9521 0.767299C92.6121 1.11947 90.6466 2.08794 89.5234 3.49662C87.8386 5.60963 87.745 8.95525 86.9027 57.6427C86.3411 86.2565 86.1539 144.453 86.4347 186.977C86.8091 260.757 86.9027 264.543 88.5874 266.039C90.2722 267.624 97.6664 267.712 298.715 267.888L507.064 268.064L509.217 266.039L511.369 264.014V135.648C511.369 29.117 511.182 6.93027 510.059 5.08138C507.251 0.151002 520.355 0.415129 301.242 0.327087C189.767 0.239045 96.9176 0.415129 94.9521 0.767299ZM111.706 11.8606C114.982 14.8541 114.888 19.4323 111.613 21.8975C107.401 24.979 102.721 24.1866 100.381 20.1366C96.4497 13.0052 105.716 6.13789 111.706 11.8606ZM142.5 11.5085C144.372 12.9172 144.933 14.0617 144.933 16.703C144.933 24.4507 134.076 26.4757 130.894 19.3443C127.899 12.565 136.229 6.93027 142.5 11.5085ZM173.387 11.5085C178.441 15.2943 175.353 23.7464 168.801 23.7464C162.717 23.7464 159.347 18.4638 162.155 13.3574C164.402 9.21938 169.175 8.42699 173.387 11.5085ZM510.34 39.9462C511.369 49.3667 510.995 260.052 509.965 262.958C509.404 264.454 508 266.039 506.877 266.479C505.473 267.096 463.166 267.272 378.928 267.096C309.666 266.832 216.536 266.744 171.89 266.744C99.3512 266.744 90.6466 266.567 89.3362 265.335C88.0258 264.102 87.8386 252.393 87.8386 149.647V35.2799L96.5432 34.9278C101.223 34.7517 196.225 34.5756 307.419 34.6636L509.778 34.7517L510.34 39.9462Z" fill="#292D32"/>
<path d="M287.296 46.9016C281.212 49.1027 273.443 55.97 270.542 61.6927C267.827 67.0633 266.61 74.0187 266.61 85.112V94.1804H260.995C256.502 94.1804 255.098 94.5326 253.507 96.1173C251.635 98.0543 251.635 98.7586 252.009 124.643L252.384 151.32L255.379 157.483C260.527 168.048 271.009 175.62 282.99 177.733C289.916 178.965 308.729 178.965 315.375 177.821C327.449 175.708 337.651 168.224 342.986 157.747C345.513 152.729 345.607 152.553 346.449 125.964C347.292 100.167 347.198 99.1988 345.513 96.9097C343.829 94.8847 342.893 94.6206 336.809 94.3565L329.976 94.0924L330.538 82.911C331.287 69.7046 330.163 64.6862 325.203 57.5547C321.74 52.6244 316.405 48.7505 309.853 46.3734C304.143 44.2603 293.66 44.5245 287.296 46.9016ZM311.631 48.1342C317.996 50.7755 323.612 55.97 326.7 62.0449C329.321 67.2394 329.415 67.5035 329.134 80.7099L328.853 94.1804H325.016H321.084L320.71 80.7099C320.429 68.384 320.242 66.9753 318.089 63.4536C314.72 57.7308 308.823 55.0896 299.463 55.0015C293.099 55.0015 291.975 55.2656 288.232 57.6428C285.704 59.3156 282.99 62.133 281.212 65.1264C278.404 69.7926 278.31 70.4089 278.029 82.0306L277.655 94.1804H273.069H268.482V82.4708C268.482 65.5666 271.103 59.0515 280.837 51.6559C288.7 45.669 302.084 44.1723 311.631 48.1342ZM310.508 58.3471C317.996 61.7808 318.557 63.1895 318.838 79.7414L319.119 94.1804H298.902H278.591L278.965 82.4708C279.246 72.2578 279.621 70.3209 281.68 66.5351C284.3 61.5167 289.448 57.2906 293.941 56.3222C298.434 55.2656 305.828 56.2341 310.508 58.3471ZM305.641 127.108C309.385 130.19 309.291 135.736 305.547 138.818L302.833 141.019L304.33 146.83C305.173 150.087 306.015 154.313 306.109 156.25L306.39 159.772L299.182 160.036C290.571 160.3 290.759 160.829 293.847 148.767L295.719 141.107L292.911 138.378C289.074 134.768 288.98 131.07 292.724 127.548C296.281 124.203 301.803 124.027 305.641 127.108Z" fill="#292D32"/>
<path d="M208.581 210.132C206.709 212.421 206.615 213.39 206.896 226.508C207.177 239.098 207.364 240.595 208.955 241.74C210.546 242.796 224.399 242.972 299.371 242.972C384.077 242.972 388.101 242.884 389.505 241.387C390.816 239.979 391.097 237.514 391.097 225.188C391.097 212.245 390.909 210.485 389.412 209.252C387.821 207.843 380.239 207.755 299.09 207.755H210.546L208.581 210.132ZM388.101 210.044C390.067 211.365 390.161 211.893 390.161 225.804C390.161 239.186 390.067 240.331 388.382 241.211C387.166 241.828 357.682 242.092 299.371 242.092C241.059 242.092 211.576 241.828 210.359 241.211C208.674 240.331 208.581 239.186 208.581 225.276C208.581 210.573 208.581 210.308 210.733 209.516C211.857 209.076 250.138 208.724 299.371 208.724C376.308 208.636 386.23 208.812 388.101 210.044Z" fill="#292D32"/>
<path d="M225.148 218.937C224.773 219.201 224.492 220.345 224.492 221.402C224.492 222.987 224.118 223.251 221.591 222.899C219.345 222.635 218.783 222.811 219.064 223.691C219.345 224.395 220.374 225.012 221.497 225.188C223.931 225.54 224.024 226.068 222.153 228.621C221.029 230.03 221.029 230.646 221.872 231.175C222.433 231.527 223.089 231.439 223.276 230.999C223.463 230.558 224.024 229.59 224.492 228.886C225.335 227.741 225.709 227.829 227.207 229.502C229.172 231.703 231.044 232.143 231.044 230.47C231.044 229.942 230.389 228.798 229.547 227.917C228.143 226.42 228.236 226.244 230.483 225.716C234.039 224.924 233.665 222.635 230.108 223.251C227.488 223.779 227.3 223.691 227.3 221.05C227.3 218.409 226.458 217.616 225.148 218.937Z" fill="#292D32"/>
<path d="M248.359 219.201C248.078 219.641 247.985 220.873 248.359 221.754C248.827 223.163 248.453 223.427 246.3 223.339C243.118 223.163 241.901 224.835 244.896 225.188C247.329 225.54 247.61 227.301 245.551 228.885C244.428 229.766 244.334 230.294 245.083 230.998C245.832 231.703 246.581 231.351 247.797 229.854L249.576 227.741L250.793 229.59C252.197 231.615 254.443 232.231 254.443 230.47C254.443 229.942 253.788 228.797 252.945 227.917C251.541 226.42 251.635 226.244 253.881 225.716C257.532 224.923 257.157 222.458 253.413 223.163C250.699 223.779 250.512 223.603 250.886 221.314C251.167 218.849 249.482 217.44 248.359 219.201Z" fill="#292D32"/>
<path d="M272.227 220.962C272.227 223.339 272.04 223.515 269.419 222.987C267.267 222.635 266.611 222.811 266.611 223.955C266.611 224.748 267.36 225.364 268.483 225.364C270.636 225.364 270.823 226.42 269.232 228.886C267.547 231.439 269.326 232.319 271.385 229.854L273.163 227.829L274.942 229.854C277.281 232.583 278.498 231.527 276.439 228.621C275.035 226.508 275.035 226.42 277.843 225.452C281.4 224.307 280.651 222.37 277.001 223.163C274.567 223.691 274.474 223.515 274.848 220.962C275.129 218.937 274.848 218.32 273.725 218.32C272.695 218.32 272.227 219.113 272.227 220.962Z" fill="#292D32"/>
<path d="M295.626 220.962C295.626 223.339 295.439 223.515 292.819 222.987C289.262 222.37 288.981 224.131 292.444 225.452C294.784 226.244 294.878 226.42 293.38 227.917C291.789 229.59 291.415 231.527 292.725 231.527C293.193 231.527 294.129 230.646 294.971 229.502L296.375 227.565L298.154 229.678C300.587 232.495 302.74 231.439 300.681 228.445C299.277 226.332 299.277 226.244 301.71 225.364C304.705 224.307 303.863 222.37 300.681 222.987C298.715 223.339 298.434 222.987 298.434 220.874C298.434 219.201 297.966 218.32 297.03 218.32C296.094 218.32 295.626 219.201 295.626 220.962Z" fill="#292D32"/>
<path d="M319.026 220.962C319.026 223.339 318.839 223.515 316.218 222.987C312.755 222.37 312.381 224.131 315.75 225.364C318.09 226.156 318.09 226.244 316.592 228.445C314.533 231.439 315.844 232.583 318.09 229.766L319.868 227.565L321.366 229.502C322.208 230.646 323.519 231.527 324.267 231.527C325.952 231.527 325.952 231.087 324.08 228.445C322.676 226.42 322.676 226.332 325.11 225.716C328.199 225.012 327.637 223.075 324.267 223.339C322.115 223.515 321.834 223.163 321.834 220.874C321.834 219.201 321.366 218.32 320.43 218.32C319.494 218.32 319.026 219.201 319.026 220.962Z" fill="#292D32"/>
<path d="M342.425 220.962C342.425 223.339 342.238 223.515 339.617 222.987C336.061 222.37 335.78 224.131 339.243 225.364C341.583 226.244 341.583 226.332 340.179 228.445C338.307 231.087 338.307 231.527 339.992 231.527C340.741 231.527 341.677 230.734 341.957 229.766C342.238 228.798 342.893 228.005 343.361 228.005C343.829 228.005 344.672 228.798 345.233 229.766C345.795 230.734 346.824 231.527 347.573 231.527C349.352 231.527 349.352 231.087 347.48 228.445C346.076 226.42 346.076 226.332 348.416 225.716C352.066 224.924 351.691 222.37 348.041 222.987C345.42 223.515 345.233 223.339 345.233 220.962C345.233 219.201 344.765 218.32 343.829 218.32C342.893 218.32 342.425 219.201 342.425 220.962Z" fill="#292D32"/>
<path d="M366.293 219.201C366.012 219.729 365.918 220.874 366.293 221.754C366.761 223.163 366.386 223.427 364.234 223.339C361.051 223.163 359.834 224.836 362.83 225.188C365.263 225.54 365.357 226.068 363.485 228.621C362.362 230.03 362.362 230.646 363.204 231.175C363.766 231.527 364.421 231.439 364.608 230.999C364.795 230.558 365.357 229.59 365.825 228.886C366.667 227.741 367.041 227.829 368.539 229.502C370.505 231.703 372.377 232.143 372.377 230.47C372.377 229.942 371.721 228.798 370.879 227.917C369.475 226.42 369.569 226.244 371.815 225.716C375.372 224.924 375.091 222.37 371.441 222.987C368.82 223.515 368.633 223.339 368.633 220.962C368.633 218.32 367.416 217.44 366.293 219.201Z" fill="#292D32"/>
<path d="M376.495 298.791C366.293 301.168 361.987 305.13 350.475 323.531C341.583 337.618 330.164 353.906 327.917 355.667C327.169 356.283 326.513 357.427 326.513 358.22C326.513 359.981 336.716 366.76 346.45 371.514C350.381 373.451 353.657 375.212 353.657 375.388C353.657 375.564 351.972 375.388 350.007 375.036C344.765 374.156 336.341 375.564 330.819 378.294C325.203 381.111 312.848 392.644 300.4 406.467C291.976 415.976 291.227 416.592 280.089 422.491L268.576 428.742L263.148 427.773C259.778 427.157 253.226 426.981 246.019 427.333C235.349 427.861 228.142 428.39 188.644 431.471C181.53 432.087 175.54 432.264 175.259 431.999C174.978 431.735 175.821 427.685 177.225 423.107C179.565 414.919 198.191 335.065 198.565 331.455C198.752 330.134 198.097 329.606 196.131 329.43C194.166 329.166 193.604 328.726 193.979 327.669C194.26 326.877 194.821 324.5 195.289 322.475C196.131 319.129 196.038 318.777 194.166 318.337C193.136 318.072 182.56 315.871 170.673 313.406C158.879 310.941 144.465 307.948 138.662 306.715C127.243 304.25 124.903 304.514 123.78 308.564C123.125 311.205 125.559 315.959 131.174 323.003L135.106 327.933L134.544 349.504C134.076 367.112 131.268 409.284 130.519 409.989C130.426 410.077 114.888 395.638 95.9817 377.941C61.8184 345.718 61.7248 345.63 59.7592 347.303C57.8873 348.887 57.7937 348.887 53.8626 345.278L49.9315 341.668L24.8472 364.735C-1.54741 389.035 -2.2026 389.827 1.82211 393.613C3.69407 395.374 4.53645 395.462 14.9258 395.11C21.1033 394.934 26.064 395.022 26.064 395.374C26.064 395.726 28.3103 397.311 31.0247 398.807C38.6061 403.21 58.8233 416.592 73.331 426.805C90.4594 438.955 101.785 447.671 120.411 463.343C134.357 475.052 136.229 476.285 140.815 477.253C144.746 478.134 152.608 478.046 176.944 477.253C239.842 474.964 250.699 474.964 271.103 477.165L289.542 479.102L294.971 477.341L300.493 475.668L302.927 477.782C306.109 480.511 310.415 482.712 311.444 482.008C311.912 481.743 316.405 474.964 321.459 466.776C330.164 452.689 335.405 445.998 336.809 446.791C337.184 447.055 337.839 450.312 338.213 454.01C339.43 466.776 341.77 468.977 356.278 471.354C363.672 472.499 395.776 475.404 401.392 475.404C402.421 475.404 402.796 476.373 402.796 478.662V482.008L472.994 482.272C511.65 482.36 544.129 482.272 545.158 482.008C547.592 481.479 548.809 478.662 550.213 471.002C550.774 467.833 553.114 457.356 555.36 447.583C559.479 430.151 561.725 416.328 560.789 414.127C559.572 411.045 554.331 410.781 506.69 410.781C456.053 410.869 455.211 410.957 453.713 415.535C453.339 416.768 452.496 419.938 451.935 422.667L450.905 427.597L446.506 428.126C444.072 428.39 438.082 429.798 433.215 431.207C428.348 432.704 419.456 434.729 413.56 435.785C407.663 436.754 398.865 438.603 393.998 439.835C383.983 442.3 372.657 444.59 370.504 444.59C369.381 444.59 368.539 441.508 366.48 430.767L363.953 416.856L366.386 409.373C368.165 403.562 368.726 400.216 368.539 394.405C368.445 388.066 368.726 386.217 370.785 381.991L373.219 377.061L378.18 378.646C384.357 380.671 388.382 380.671 394.466 378.734C399.894 376.973 403.638 374.244 407.382 369.665C408.973 367.64 410.564 366.584 411.594 366.76C412.436 366.936 413.653 366.76 414.402 366.32C415.525 365.615 415.619 365.087 414.683 363.15C414.028 361.918 413.56 359.805 413.56 358.396C413.56 354.962 417.397 344.925 421.609 337.178C426.476 328.285 426.476 324.147 421.609 317.456C415.244 308.74 402.983 301.168 391.377 298.879C383.889 297.383 382.766 297.383 376.495 298.791ZM174.417 327.933C190.89 329.606 194.821 330.134 196.319 331.015C197.535 331.719 196.319 337.882 188.924 369.313C188.456 371.25 187.427 375.74 186.678 379.174C180.688 405.411 179.565 409.989 176.382 421.698C173.574 431.823 173.2 432.704 171.047 432.88C159.347 434.024 143.997 436.225 143.997 436.754C143.997 437.194 144.559 437.282 145.214 437.106C146.618 436.578 177.599 433.408 187.52 432.704C191.639 432.44 199.688 431.823 205.304 431.383C252.852 427.597 261.744 427.333 265.675 429.622C266.424 430.062 266.704 430.503 266.143 430.503C265.675 430.503 263.803 431.295 262.118 432.264C259.123 434.024 259.123 434.112 260.527 436.578C262.96 441.068 270.542 447.583 278.778 452.249L286.734 456.739L287.015 466.248C287.109 471.442 287.109 476.197 286.828 476.725C286.547 477.517 284.207 477.429 277.655 476.549C264.645 474.788 222.526 474.172 199.22 475.316C188.176 475.845 170.298 476.285 159.628 476.373C141.377 476.373 139.879 476.285 135.948 474.436C130.987 472.235 126.963 467.481 125.371 461.934C124.342 458.588 124.529 456.035 126.588 443.181C127.992 434.993 129.303 426.893 129.49 425.22C129.771 423.547 130.145 421.17 130.426 419.938C130.894 417.472 133.234 394.934 134.263 382.696C134.544 378.382 135.106 364.735 135.48 352.321L136.042 329.694L140.721 328.197C146.618 326.26 157.101 326.26 174.417 327.933ZM421.047 335.769C421.047 335.945 419.55 339.027 417.771 342.548C415.993 346.158 413.84 351.353 413.092 354.17C411.875 358.66 411.875 359.629 413.092 362.27C414.402 365.351 414.402 365.351 411.781 365.351C409.816 365.351 408.599 366.232 406.352 369.225C404.574 371.514 401.298 374.332 398.397 375.828C394.091 378.205 392.5 378.558 386.416 378.558C380.613 378.558 378.46 378.117 374.061 376.004C368.82 373.627 366.667 373.451 370.504 375.74C372.376 376.797 372.376 376.885 369.849 381.463C367.603 385.513 367.322 387.01 367.229 395.286C367.135 403.474 366.854 405.235 364.421 410.605C360.396 419.409 359.179 419.233 359.741 409.637C360.022 405.411 360.677 399.6 361.238 396.782C362.455 390.443 361.145 384.016 357.775 379.174C355.529 375.916 355.435 375.828 357.494 376.885C359.366 377.765 359.928 377.501 362.642 374.508C364.327 372.571 367.416 368.081 369.569 364.383C371.628 360.685 374.342 356.987 375.652 356.195C376.963 355.402 377.992 354.17 377.992 353.378C377.992 352.497 377.244 352.849 375.746 354.522C373.874 356.547 373.125 356.811 371.721 356.019C364.889 352.145 367.416 337.53 374.623 339.291C376.495 339.731 377.712 340.964 379.022 343.781L380.894 347.743L385.106 344.045L389.411 340.259L399.333 339.731C405.885 339.379 411.126 338.498 414.496 337.354C419.924 335.505 421.047 335.241 421.047 335.769ZM95.4201 378.998C133.889 415.359 130.8 411.133 128.554 424.428C123.593 453.218 123.125 457.092 123.967 461.318L124.903 465.632L119.381 461.053C90.7402 437.37 65.7495 419.233 37.2957 401.449C32.4286 398.455 28.1231 395.638 27.6552 395.286C26.3448 394.141 30.7439 383.312 34.675 378.029C39.3549 371.778 51.9906 356.811 57.3257 351.176C59.3849 348.887 61.1632 347.038 61.2568 346.95C61.2568 346.862 76.6069 361.301 95.4201 378.998ZM353.657 377.061C357.494 378.822 360.209 384.985 360.209 391.94C360.209 395.198 359.834 398.103 359.273 398.367C358.243 398.984 358.15 414.127 359.086 436.049L359.741 450.048L356.746 449.608C355.061 449.344 353.657 449.432 353.657 449.784C353.657 450.136 357.12 451.105 361.425 451.897C382.953 455.947 405.51 460.525 412.156 462.11C417.678 463.431 422.639 463.959 431.156 463.959C438.176 463.959 442.575 464.311 442.575 464.839C442.575 465.368 440.984 465.544 438.644 465.279C435.649 464.927 435.087 465.015 436.491 465.632C437.521 466.072 439.299 466.512 440.516 466.512C441.639 466.6 442.575 467.128 442.575 467.833C442.575 468.889 442.013 468.977 439.767 468.273C438.269 467.745 436.304 467.481 435.368 467.745C434.151 468.009 434.432 468.273 436.491 468.713C440.235 469.594 441.92 470.474 442.388 471.883C442.762 472.763 442.201 472.851 440.609 472.411C439.393 471.971 437.146 471.53 435.555 471.354C434.057 471.178 433.59 471.266 434.619 471.53C440.329 473.027 436.959 473.644 421.983 473.82C399.707 474.172 398.397 474.084 381.268 472.851C366.105 471.795 359.086 471.002 350.1 469.065C344.859 468.009 340.928 464.839 340.179 461.053C338.4 451.897 334.469 415.183 334.188 405.146C334.001 397.047 333.533 392.821 332.972 393.173C332.41 393.437 332.036 397.047 332.129 401.273C332.223 405.499 332.223 409.284 332.223 409.637C332.036 411.221 322.676 405.411 317.622 400.568L312.193 395.374L316.592 390.708C325.858 380.935 335.592 375.916 345.233 375.916C348.603 375.916 352.346 376.445 353.657 377.061ZM460.265 415.271C459.703 416.68 458.112 423.107 456.615 429.622C455.117 436.137 453.339 444.061 452.496 447.231C450.156 456.827 448.004 472.939 448.472 477.429L448.846 481.567L426.289 481.391C404.2 481.127 403.732 481.127 403.451 479.278C402.889 475.492 405.229 474.964 424.698 474.524L443.043 474.084L444.26 464.399C444.915 459.028 446.506 450.312 447.816 445.03C449.127 439.659 451.186 430.767 452.496 425.308C453.807 419.762 455.304 414.655 455.866 414.039C456.427 413.422 457.831 412.894 459.048 412.894C461.107 412.894 461.201 413.07 460.265 415.271ZM365.825 432.968C366.948 439.395 367.79 444.766 367.603 444.942C367.416 445.118 365.918 445.646 364.233 446.174C360.583 447.319 360.677 447.495 360.302 435.609C360.022 426.541 361.425 418.881 363.017 420.554C363.391 420.906 364.608 426.541 365.825 432.968ZM450.063 429.534C450.063 429.974 448.94 430.767 447.536 431.207L444.915 432.087L447.536 432.176C450.437 432.264 450.156 433.672 446.88 434.905C444.915 435.697 444.915 435.697 447.068 435.697C450.812 435.785 447.91 439.219 443.417 439.835C438.269 440.628 437.801 442.036 442.949 441.42C446.506 440.892 447.255 441.068 447.255 442.212C447.255 444.59 443.511 445.822 435.836 446.086C429.752 446.262 426.382 447.055 415.712 450.752C408.599 453.218 401.298 455.683 399.52 456.299C395.963 457.532 394.185 457.268 372.657 452.865C356.278 449.52 356.839 448.551 377.524 444.59C382.672 443.621 389.879 442.036 393.436 441.068C397.086 440.187 405.697 438.338 412.624 437.106C419.55 435.873 428.442 433.848 432.373 432.616C438.644 430.679 445.57 429.094 448.94 428.83C449.501 428.742 450.063 429.094 450.063 429.534ZM507.906 446.086C508.093 448.111 507.719 449.08 506.409 449.784C504.069 451.017 500.606 448.727 500.606 445.91C500.606 443.621 501.822 442.829 505.286 443.093C507.158 443.269 507.719 443.797 507.906 446.086ZM444.634 454.274L443.23 462.638L432.186 462.902C422.826 463.078 419.55 462.726 411.5 460.877C406.165 459.645 401.205 458.412 400.456 458.148C399.707 457.884 405.791 455.331 414.028 452.513C426.757 448.111 430.033 447.231 435.555 447.231C439.205 447.143 442.949 446.791 443.979 446.438C445.008 445.998 445.851 445.734 445.944 445.822C445.944 445.822 445.383 449.696 444.634 454.274Z" fill="#292D32"/>
<path d="M374.342 347.039C374.249 348.271 373.687 349.504 373.125 349.768C372.47 349.944 372.096 350.384 372.377 350.648C372.657 350.913 373.687 350.56 374.623 349.856C376.12 348.888 376.214 348.271 375.372 346.686C374.342 344.662 374.342 344.662 374.342 347.039Z" fill="#292D32"/>
<path d="M405.136 345.454C405.136 345.63 406.633 346.863 408.412 348.095C411.968 350.736 412.811 350.032 409.816 347.039C408.131 345.366 405.136 344.397 405.136 345.454Z" fill="#292D32"/>
<path d="M403.545 353.554C402.89 355.138 404.575 356.987 405.979 356.195C407.57 355.226 407.196 352.145 405.604 352.145C404.762 352.145 403.92 352.761 403.545 353.554Z" fill="#292D32"/>
<path d="M400.456 365.616C400.456 367.376 400.83 368.961 401.298 369.313C401.86 369.578 401.954 368.433 401.673 366.496C400.924 362.094 400.456 361.654 400.456 365.616Z" fill="#292D32"/>
</svg>
