<svg width="561" height="482" viewBox="0 0 561 482" fill="none" xmlns="http://www.w3.org/2000/svg">
<path d="M145.77 3.62455C145.446 12.2027 139.943 14.9816 132.822 10.1488L129.261 7.73241L127.643 10.2696C126.672 11.7195 124.514 13.8942 122.572 15.2232C120.738 16.4314 119.874 17.5188 120.63 17.5188C121.385 17.5188 123.759 15.7065 125.917 13.4109L129.909 9.42389L133.362 11.7195C135.304 13.0485 138.217 13.8942 139.835 13.6526C143.72 13.1693 147.065 7.97405 146.417 3.50373L145.986 -3.97041e-05L145.77 3.62455Z" fill="#292D32"/>
<path d="M473.67 5.55797C473.67 7.24945 473.131 9.18256 472.375 10.0283C471.404 11.1157 471.512 11.4781 472.915 11.4781C473.886 11.4781 475.181 12.4447 475.828 13.5321C476.691 15.1027 477.231 15.2235 477.554 14.1362C477.878 13.4112 479.389 12.6863 480.899 12.6863C483.597 12.6863 483.597 12.5655 481.87 10.3908C480.791 9.06174 480.252 7.37027 480.683 6.76617C481.115 5.92043 480.36 5.43715 478.849 5.43715C477.446 5.43715 475.72 4.83305 474.965 3.98732C473.994 2.89994 473.67 3.2624 473.67 5.55797Z" fill="#292D32"/>
<path d="M87.7211 9.90735C83.5131 14.861 82.0025 14.861 77.1472 10.149C75.0971 8.09506 73.6944 7.24932 74.0181 8.3367C74.6655 10.3906 80.9236 15.1026 82.8657 15.1026C83.5131 15.1026 85.779 13.4111 87.829 11.478L91.4975 7.85342L94.9502 11.478C98.8345 15.4651 101.856 15.9483 107.466 13.2903C111.135 11.5988 111.566 11.7196 114.048 13.8944C115.559 15.2234 117.285 16.3108 117.932 16.3108C118.472 16.3108 117.177 14.9818 115.127 13.2903C111.351 10.5115 110.919 10.5115 107.466 12.0821C101.64 14.861 98.8345 14.2569 94.8423 9.90735L91.1738 5.92031L87.7211 9.90735Z" fill="#292D32"/>
<path d="M543.695 8.21576C543.695 8.33658 543.479 9.42396 543.263 10.6322C542.724 14.1359 542.184 14.2567 537.329 11.4779C534.847 10.0281 532.689 9.0615 532.473 9.30314C532.365 9.54478 531.61 10.8738 530.963 12.3236L529.668 15.1025L524.381 12.082C517.691 8.33658 516.828 8.33658 516.828 12.082C516.828 15.7066 515.21 15.9482 509.815 13.0485C507.009 11.4779 505.715 11.3571 504.744 12.4444C503.88 13.411 504.528 14.8608 507.441 18.0022C511.973 23.1974 516.828 23.9223 519.418 19.6936C521.036 17.0356 521.252 17.0356 524.273 19.0895C528.481 21.8684 532.257 21.7476 534.631 18.7271C536.465 16.5523 536.789 16.4315 539.055 18.123C542.831 20.9018 546.716 20.4185 548.766 16.9148C551.032 12.9277 550.384 10.0281 546.824 8.94068C545.097 8.4574 543.802 8.09494 543.695 8.21576Z" fill="#292D32"/>
<path d="M115.989 38.9041C87.2886 40.958 79.8437 42.5287 74.6646 48.0864C69.7014 53.2816 69.054 56.1813 69.1619 73.9418C69.2698 83.1241 69.5935 89.165 69.8093 87.2319L70.2409 83.9698H275.246C469.677 83.9698 480.143 84.0906 480.251 86.0237C480.251 87.3528 480.575 87.1111 481.114 85.178C481.546 83.4865 481.546 76.1165 481.222 68.6257C480.575 53.2816 479.28 50.0195 471.943 45.9116C467.951 43.6161 464.822 43.4953 413.247 42.6495C383.251 42.1662 336.208 40.958 308.586 39.9915C264.564 38.3 134.224 37.5751 115.989 38.9041Z" fill="#292D32"/>
<path d="M516.829 45.9116C518.231 47.6031 519.526 48.9321 519.742 48.9321C520.713 48.9321 516.181 43.012 515.318 42.8912C514.779 42.8912 515.426 44.2202 516.829 45.9116Z" fill="#292D32"/>
<path d="M510.463 51.9525C511.434 53.2815 512.729 55.4563 513.376 56.7853C514.024 58.1143 514.671 58.4768 514.671 57.7518C514.671 56.9061 513.376 54.7313 511.758 52.7982C510.031 50.9859 509.492 50.5027 510.463 51.9525Z" fill="#292D32"/>
<path d="M514.887 62.2224C514.887 63.9139 515.103 64.518 515.426 63.6722C515.642 62.9473 515.642 61.4975 515.426 60.6517C515.103 59.9268 514.887 60.5309 514.887 62.2224Z" fill="#292D32"/>
<path d="M481.438 93.6353C481.438 95.9308 481.654 96.8974 481.978 95.6892C482.194 94.6018 482.194 92.6687 481.978 91.4605C481.654 90.3731 481.438 91.3397 481.438 93.6353Z" fill="#292D32"/>
<path d="M152.998 93.2729C171.017 93.5145 200.15 93.5145 217.737 93.2729C235.324 93.1521 220.65 93.0312 185.044 93.0312C149.438 93.0312 134.98 93.1521 152.998 93.2729Z" fill="#292D32"/>
<path d="M390.589 93.6353L460.183 94.2394L460.399 169.148C460.614 210.347 460.83 249.976 461.046 257.346C461.154 264.595 461.37 230.645 461.262 181.834V93.0312H391.128H320.995L390.589 93.6353Z" fill="#292D32"/>
<path d="M93.0078 113.812L93.2236 134.11L93.5473 114.537L93.871 94.9644L104.984 94.4812L115.99 94.1187L104.445 93.8771L92.792 93.6354L93.0078 113.812Z" fill="#292D32"/>
<path d="M110.487 102.697C109.192 108.496 111.889 111.517 117.068 110.067C119.011 109.463 119.766 108.496 119.766 106.442C119.766 101.126 118.687 99.6765 114.803 99.6765C111.782 99.6765 111.026 100.281 110.487 102.697Z" fill="#292D32"/>
<path d="M130.555 101.61C128.505 104.268 130.448 109.825 133.469 110.309C138.864 111.154 142.424 104.993 138.971 101.126C137.137 99.0724 132.174 99.314 130.555 101.61Z" fill="#292D32"/>
<path d="M151.056 101.368C149.438 103.784 150.085 108.134 152.351 109.825C155.048 111.758 160.12 109.342 160.551 105.959C161.091 102.214 158.933 99.6764 155.372 99.6764C153.754 99.6764 151.812 100.522 151.056 101.368Z" fill="#292D32"/>
<path d="M482.625 106.925C482.625 110.55 482.841 112.121 483.057 110.188C483.272 108.375 483.272 105.476 483.057 103.543C482.841 101.73 482.625 103.301 482.625 106.925Z" fill="#292D32"/>
<path d="M171.881 116.229C209.753 116.471 271.471 116.471 308.911 116.229C346.459 116.108 315.493 115.987 240.072 115.987C164.76 115.987 134.009 116.108 171.881 116.229Z" fill="#292D32"/>
<path d="M380.662 116.229C381.31 116.471 382.604 116.471 383.36 116.229C384.007 115.866 383.468 115.625 381.957 115.625C380.446 115.625 379.907 115.866 380.662 116.229Z" fill="#292D32"/>
<path d="M483.812 128.069C483.812 135.318 483.919 138.218 484.135 134.351C484.351 130.485 484.351 124.565 484.135 121.061C483.919 117.558 483.812 120.699 483.812 128.069Z" fill="#292D32"/>
<path d="M68.4072 143.776C68.4072 155.012 68.623 159.845 68.7309 154.408C68.9467 148.971 68.9467 139.668 68.7309 133.868C68.623 128.069 68.4072 132.419 68.4072 143.776Z" fill="#292D32"/>
<path d="M264.348 136.043C255.177 143.413 252.695 145.588 255.717 143.775C258.09 142.326 274.059 129.519 274.059 129.035C274.059 128.311 273.52 128.673 264.348 136.043Z" fill="#292D32"/>
<path d="M279.886 130.968C280.641 132.297 284.849 135.197 284.849 134.351C284.849 133.989 283.554 132.901 282.044 131.693C280.425 130.606 279.562 130.243 279.886 130.968Z" fill="#292D32"/>
<path d="M292.401 140.03C292.401 140.392 293.372 141.238 294.559 141.963C295.746 142.688 296.717 142.93 296.717 142.688C296.717 142.325 295.746 141.48 294.559 140.755C293.372 140.03 292.401 139.788 292.401 140.03Z" fill="#292D32"/>
<path d="M92.1445 167.335C92.1445 180.263 92.3603 185.579 92.4682 179.055C92.684 172.652 92.684 162.019 92.4682 155.495C92.3603 149.092 92.1445 154.408 92.1445 167.335Z" fill="#292D32"/>
<path d="M250.753 146.313C248.811 148.004 248.811 148.125 251.185 146.796C252.48 146.071 253.559 145.225 253.559 144.984C253.559 144.017 253.019 144.259 250.753 146.313Z" fill="#292D32"/>
<path d="M299.955 144.984C299.955 145.829 306.537 149.454 307.076 148.971C307.292 148.608 305.782 147.521 303.731 146.434C301.681 145.346 299.955 144.621 299.955 144.984Z" fill="#292D32"/>
<path d="M241.69 151.629C238.453 153.562 236.188 155.133 236.619 155.254C237.698 155.254 248.164 149.333 248.164 148.608C248.164 147.763 248.272 147.763 241.69 151.629Z" fill="#292D32"/>
<path d="M311.824 151.629C312.687 152.233 313.982 152.837 314.521 152.837C315.169 152.837 314.845 152.233 313.982 151.629C313.119 151.024 311.932 150.42 311.284 150.42C310.745 150.42 310.961 151.024 311.824 151.629Z" fill="#292D32"/>
<path d="M484.891 175.793C484.891 190.049 485.106 195.97 485.214 188.72C485.43 181.592 485.43 169.993 485.214 162.744C485.106 155.616 484.891 161.536 484.891 175.793Z" fill="#292D32"/>
<path d="M317.218 154.045C318.082 154.649 319.376 155.254 319.916 155.254C320.563 155.254 320.24 154.649 319.376 154.045C318.513 153.441 317.326 152.837 316.679 152.837C316.139 152.837 316.355 153.441 317.218 154.045Z" fill="#292D32"/>
<path d="M231.44 156.462C230.037 157.187 229.821 157.549 230.9 157.549C231.763 157.549 233.274 157.066 234.137 156.462C236.079 155.012 234.353 155.012 231.44 156.462Z" fill="#292D32"/>
<path d="M327.685 158.878C331.461 161.415 332.108 163.348 332.648 173.376C332.972 179.659 332.972 179.659 333.187 171.806C333.403 164.073 333.187 163.227 330.274 159.965C328.548 158.032 326.498 156.461 325.635 156.461C324.879 156.461 325.85 157.549 327.685 158.878Z" fill="#292D32"/>
<path d="M226.369 158.516C227.124 158.878 228.095 158.757 228.419 158.395C228.85 158.032 228.203 157.67 227.016 157.791C225.829 157.791 225.505 158.153 226.369 158.516Z" fill="#292D32"/>
<path d="M222.27 160.207C222.27 160.811 222.809 161.053 223.349 160.69C223.996 160.328 224.427 159.723 224.427 159.361C224.427 159.119 223.996 158.878 223.349 158.878C222.809 158.878 222.27 159.482 222.27 160.207Z" fill="#292D32"/>
<path d="M221.405 164.919C221.405 166.61 221.621 167.214 221.945 166.369C222.161 165.644 222.161 164.194 221.945 163.348C221.621 162.623 221.405 163.227 221.405 164.919Z" fill="#292D32"/>
<path d="M67.3281 190.895C67.3281 204.185 67.5439 209.743 67.6518 203.34C67.8676 196.936 67.8676 186.063 67.6518 179.176C67.5439 172.289 67.3281 177.605 67.3281 190.895Z" fill="#292D32"/>
<path d="M220.435 175.793C220.435 179.417 220.65 180.988 220.866 179.055C221.082 177.243 221.082 174.343 220.866 172.41C220.65 170.598 220.435 172.168 220.435 175.793Z" fill="#292D32"/>
<path d="M37.1164 174.343C37.7638 177.363 37.4401 178.33 35.7138 179.659C32.6926 181.713 32.9084 183.042 36.2533 183.042C38.0875 183.042 39.2744 183.767 39.5981 185.458C40.3534 188.479 41.2165 188.479 42.835 185.7C43.6982 184.009 44.993 183.525 47.6904 184.009L51.251 184.613L48.7694 181.471C46.9351 179.297 46.3956 177.726 46.9351 175.672C47.6904 173.256 47.4746 173.135 44.8851 173.86C43.0508 174.343 41.1086 173.981 39.2744 172.531L36.4691 170.477L37.1164 174.343Z" fill="#292D32"/>
<path d="M269.096 178.693C261.003 182.68 258.522 193.916 263.809 202.615C265.319 205.031 267.477 207.448 268.772 207.81C270.93 208.656 271.038 209.381 270.606 219.65L270.283 230.766L276.756 231.128L283.23 231.491V221.1C283.23 210.831 283.23 210.589 286.683 207.448C293.157 201.407 295.207 191.62 291.323 184.492C287.546 177.605 276.972 174.947 269.096 178.693Z" fill="#292D32"/>
<path d="M220.326 187.271C220.326 189.204 220.542 189.929 220.866 188.72C221.081 187.633 221.081 185.942 220.866 185.096C220.542 184.371 220.326 185.217 220.326 187.271Z" fill="#292D32"/>
<path d="M331.568 193.916C331.568 198.265 331.784 199.957 332 197.782C332.216 195.728 332.216 192.103 332 189.929C331.784 187.875 331.568 189.566 331.568 193.916Z" fill="#292D32"/>
<path d="M220.326 194.52C220.326 196.453 220.542 197.178 220.866 195.97C221.081 194.882 221.081 193.191 220.866 192.345C220.542 191.62 220.326 192.466 220.326 194.52Z" fill="#292D32"/>
<path d="M221.405 201.165C221.405 202.856 221.621 203.46 221.945 202.614C222.161 201.889 222.161 200.44 221.945 199.594C221.621 198.869 221.405 199.473 221.405 201.165Z" fill="#292D32"/>
<path d="M5.71856 206.843C6.04226 208.776 6.58174 211.072 7.01333 212.159C7.44492 213.609 6.47385 215.18 3.88431 217.475C1.72636 219.288 0 221.342 0 221.946C0 222.671 1.94215 221.1 4.3159 218.442C8.3081 214.093 8.6318 213.368 7.55282 210.347C5.82646 205.031 6.25805 204.427 10.0345 207.689C12.0845 209.501 14.3504 210.83 15.2135 210.83C16.0767 210.83 15.3214 209.985 13.4872 208.897C11.7608 207.931 9.49497 206.239 8.5239 205.273C5.93436 202.735 5.07118 203.219 5.71856 206.843Z" fill="#292D32"/>
<path d="M330.382 206.602C330.382 208.535 330.598 209.26 330.921 208.052C331.137 206.964 331.137 205.273 330.921 204.427C330.598 203.702 330.382 204.548 330.382 206.602Z" fill="#292D32"/>
<path d="M91.1729 251.909C91.1729 278.127 91.2807 288.88 91.3886 275.711C91.6044 262.662 91.6044 241.156 91.3886 227.987C91.2807 214.938 91.1729 225.691 91.1729 251.909Z" fill="#292D32"/>
<path d="M222.484 206.602C222.484 207.931 222.808 210.105 223.348 211.434C224.534 214.455 224.534 211.314 223.348 207.206C222.7 204.789 222.484 204.668 222.484 206.602Z" fill="#292D32"/>
<path d="M18.3426 208.535C17.0478 209.501 17.2636 209.622 19.0979 209.018C21.1479 208.414 21.4716 208.655 20.9321 210.468C20.3927 212.28 20.5006 212.401 21.4716 210.83C23.7375 207.326 21.7953 205.877 18.3426 208.535Z" fill="#292D32"/>
<path d="M329.303 213.851C329.303 215.784 329.519 216.509 329.842 215.301C330.058 214.213 330.058 212.522 329.842 211.676C329.519 210.951 329.303 211.797 329.303 213.851Z" fill="#292D32"/>
<path d="M22.5501 219.771C25.6791 223.396 25.8949 224 24.1686 224.483C22.8738 224.845 23.3054 225.087 25.3554 225.208L28.4845 225.329L24.2765 220.496C22.0106 217.838 19.8527 215.663 19.529 215.663C19.2053 215.663 20.6079 217.475 22.5501 219.771Z" fill="#292D32"/>
<path d="M483.812 234.994C483.812 245.989 484.027 250.459 484.135 244.901C484.351 239.465 484.351 230.524 484.135 224.966C484.027 219.529 483.812 224 483.812 234.994Z" fill="#292D32"/>
<path d="M226.045 220.738C226.476 222.308 227.231 224 227.771 224.725C228.31 225.329 228.202 224.121 227.555 221.946C226.26 217.596 224.966 216.63 226.045 220.738Z" fill="#292D32"/>
<path d="M328.117 220.013C328.117 221.342 328.441 221.704 328.764 220.738C329.088 219.892 328.98 218.804 328.656 218.442C328.333 217.959 328.009 218.684 328.117 220.013Z" fill="#292D32"/>
<path d="M15.1057 224.725C14.3504 225.812 13.9189 226.779 14.1347 227.141C14.4583 227.383 15.2136 226.537 15.9689 225.329C17.4795 222.429 17.0479 222.188 15.1057 224.725Z" fill="#292D32"/>
<path d="M19.2055 223.758C19.9607 224.121 20.9318 224 21.2555 223.637C21.6871 223.275 21.0397 222.912 19.8528 223.033C18.666 223.033 18.3423 223.396 19.2055 223.758Z" fill="#292D32"/>
<path d="M324.987 228.349C323.692 231.37 322.829 233.786 323.152 233.786C323.908 233.786 328.223 224 327.792 223.396C327.468 223.154 326.281 225.45 324.987 228.349Z" fill="#292D32"/>
<path d="M10.3578 226.537C11.221 230.524 12.5158 231.974 13.4868 229.92C14.0263 229.074 13.9184 228.711 13.4868 229.316C12.9474 229.799 11.8684 228.711 11.1131 226.899C9.81833 223.758 9.81833 223.758 10.3578 226.537Z" fill="#292D32"/>
<path d="M228.742 227.625C228.742 228.349 229.174 229.195 229.821 229.558C230.469 229.92 230.576 229.437 230.253 228.47C229.497 226.296 228.742 225.933 228.742 227.625Z" fill="#292D32"/>
<path d="M66.3564 289.967C66.3564 321.864 66.4643 334.791 66.5722 318.601C66.788 302.412 66.788 276.315 66.5722 260.608C66.4643 244.901 66.3564 258.071 66.3564 289.967Z" fill="#292D32"/>
<path d="M233.058 236.203C233.706 237.532 234.461 238.619 234.785 238.619C235.001 238.619 234.785 237.532 234.137 236.203C233.49 234.874 232.735 233.786 232.411 233.786C232.195 233.786 232.411 234.874 233.058 236.203Z" fill="#292D32"/>
<path d="M317.758 241.639C312.04 250.942 297.905 265.562 289.597 270.757C285.713 273.173 282.8 275.469 283.123 275.71C283.878 276.677 294.129 269.428 301.789 262.541C307.94 256.983 316.464 246.11 320.995 238.256C324.448 232.336 321.966 234.873 317.758 241.639Z" fill="#292D32"/>
<path d="M238.237 244.297C239.964 246.834 242.553 249.976 243.956 251.305C245.358 252.634 244.064 250.58 241.15 246.714C235.216 238.981 233.274 237.41 238.237 244.297Z" fill="#292D32"/>
<path d="M249.999 258.071C251.941 260.367 255.07 263.266 257.012 264.474C261.436 267.374 261.112 266.891 253.02 259.763C247.948 255.171 247.301 254.809 249.999 258.071Z" fill="#292D32"/>
<path d="M482.732 270.636C482.732 277.281 482.84 279.818 483.056 276.315C483.272 272.811 483.272 267.374 483.056 264.233C482.84 261.091 482.732 263.991 482.732 270.636Z" fill="#292D32"/>
<path d="M261.111 267.133C261.111 267.978 273.088 274.019 273.52 273.415C273.735 273.174 271.038 271.482 267.585 269.791C264.025 268.099 261.111 266.891 261.111 267.133Z" fill="#292D32"/>
<path d="M189.9 285.859C177.923 287.309 176.952 288.759 176.952 305.795C176.952 324.159 178.247 325.488 195.403 325.609C212.558 325.609 212.774 325.488 213.314 308.211C213.637 300.962 213.529 293.954 213.206 292.505C212.127 287.43 201.337 284.41 189.9 285.859ZM197.453 299.15C197.453 302.17 197.884 302.774 199.395 302.291C200.366 302.049 201.876 301.566 202.74 301.324C203.603 301.083 204.574 301.808 204.79 303.016C205.005 304.587 204.25 305.311 201.876 305.795L198.532 306.52L200.797 310.023C202.848 313.286 202.848 313.648 201.121 314.373C199.934 314.856 198.64 314.252 197.237 312.44L195.295 309.661L193.353 312.319C192.166 314.01 190.871 314.615 189.576 314.131C187.85 313.286 187.85 313.044 189.792 310.023L191.95 306.761L188.713 305.432C186.447 304.466 185.8 303.499 186.231 302.049C186.663 300.841 187.526 300.358 188.713 300.962C193.784 303.258 194.216 303.137 193.568 299.15C192.921 295.888 193.137 295.404 195.187 295.404C197.021 295.404 197.453 296.129 197.453 299.15Z" fill="#292D32"/>
<path d="M141.777 287.43C139.943 288.397 138.108 289.967 137.677 291.176C137.353 292.263 137.029 299.029 137.029 306.157C137.029 317.514 137.353 319.689 139.295 322.468C141.453 325.609 141.669 325.609 154.832 325.609C170.478 325.609 170.693 325.488 172.743 312.802C174.254 303.982 172.42 289.967 169.614 288.276C168.535 287.672 162.709 286.947 156.451 286.464C147.927 285.98 144.258 286.222 141.777 287.43ZM157.314 299.029C156.882 302.533 156.99 302.653 160.227 301.928C162.817 301.445 163.896 301.687 164.327 303.137C164.867 304.587 164.219 305.311 161.846 305.916C158.069 306.64 158.069 306.64 160.227 310.386C161.738 312.802 161.738 313.406 160.335 314.615C159.04 315.823 158.393 315.46 156.882 312.802L154.94 309.661L152.674 312.802C150.624 315.702 150.193 315.823 148.898 314.131C147.711 312.561 147.819 311.957 149.33 310.144C151.703 307.124 151.488 306.64 148.251 305.795C146.416 305.191 145.661 304.345 145.877 302.895C146.093 301.808 147.064 301.083 147.927 301.324C148.79 301.566 150.301 302.049 151.38 302.291C152.782 302.774 153.214 302.17 153.214 299.15C153.214 296.129 153.646 295.404 155.48 295.404C157.422 295.404 157.746 296.008 157.314 299.029Z" fill="#292D32"/>
<path d="M223.671 286.584C222.269 286.826 220.219 288.518 218.924 290.33C216.874 293.229 216.766 294.8 217.09 307.003C217.521 325.73 217.413 325.609 234.785 325.609C245.035 325.609 248.38 325.247 249.567 323.797C251.401 321.743 253.559 311.956 253.559 305.674C253.559 299.754 251.509 289.726 249.998 288.397C248.596 287.188 227.556 285.739 223.671 286.584ZM237.374 299.15C237.374 302.653 237.59 302.774 240.503 302.049C242.769 301.566 243.74 301.808 244.28 303.257C244.819 305.07 244.496 305.311 239.64 307.003C238.453 307.486 238.453 307.969 239.964 309.661C242.014 312.319 242.23 314.252 240.395 315.46C239.748 315.944 238.237 314.977 236.835 313.044L234.461 309.782L232.627 312.923C231.116 315.46 230.469 315.823 229.282 314.735C227.879 313.406 227.879 312.923 229.282 310.748C231.44 307.245 231.332 306.52 228.527 306.036C226.908 305.795 226.045 304.828 226.045 303.257C226.045 300.841 226.369 300.841 231.224 302.291C232.627 302.774 233.058 302.17 233.058 299.15C233.058 296.25 233.49 295.404 235.216 295.404C236.943 295.404 237.374 296.25 237.374 299.15Z" fill="#292D32"/>
<path d="M266.722 286.826C259.601 288.88 258.953 290.571 258.953 306.278C258.953 326.334 259.385 326.696 282.475 325.85C293.372 325.488 294.02 324.521 294.991 308.452C295.854 294.317 294.991 290.571 290.351 288.155C286.899 286.222 271.685 285.497 266.722 286.826ZM279.454 299.149C279.454 302.653 279.669 302.774 282.583 302.049C284.849 301.566 285.82 301.807 286.359 303.257C286.899 305.069 286.467 305.432 281.827 307.003C280.748 307.365 280.856 308.211 282.259 310.506C283.662 313.044 283.77 314.01 282.798 315.097C281.719 316.185 280.964 315.822 279.022 313.164L276.54 309.781L274.706 312.923C273.196 315.46 272.548 315.822 271.361 314.735C269.959 313.406 269.959 312.923 271.361 310.748C273.519 307.244 273.411 306.519 270.606 306.036C268.988 305.794 268.124 304.828 268.124 303.257C268.124 300.841 268.448 300.841 273.303 302.291C274.706 302.774 275.138 302.17 275.138 299.149C275.138 296.25 275.569 295.404 277.296 295.404C279.022 295.404 279.454 296.25 279.454 299.149Z" fill="#292D32"/>
<path d="M304.163 287.068C299.523 289.001 298.66 292.505 299.092 307.245C299.523 325.73 299.523 325.609 316.787 325.609C327.253 325.609 330.382 325.247 331.677 323.797C336.208 318.602 336.101 291.055 331.461 288.276C328.656 286.705 307.4 285.739 304.163 287.068ZM319.376 299.15C319.376 302.653 319.592 302.774 322.505 302.049C324.771 301.566 325.742 301.808 326.282 303.257C326.821 305.07 326.39 305.432 321.75 307.003C320.671 307.365 320.779 308.211 322.182 310.627C323.8 313.286 323.8 313.89 322.505 314.856C321.426 315.581 320.347 315.098 318.729 312.802L316.463 309.782L314.629 312.923C313.118 315.46 312.471 315.823 311.284 314.735C309.881 313.406 309.881 312.923 311.284 310.748C313.442 307.245 313.334 306.52 310.529 306.036C308.91 305.795 308.047 304.828 308.047 303.257C308.047 300.841 308.371 300.841 313.226 302.291C314.629 302.774 315.061 302.17 315.061 299.15C315.061 296.25 315.492 295.404 317.218 295.404C318.945 295.404 319.376 296.25 319.376 299.15Z" fill="#292D32"/>
<path d="M346.675 286.947C340.201 288.638 339.877 289.363 339.877 305.795C339.877 325.851 339.661 325.609 357.033 325.609C374.836 325.609 374.836 325.609 375.267 306.52C375.699 290.33 375.267 289.242 368.146 286.947C363.615 285.618 351.854 285.497 346.675 286.947ZM359.299 299.15C359.299 302.17 359.73 302.774 361.241 302.291C365.988 300.841 366.312 300.841 366.312 303.257C366.312 304.828 365.449 305.795 363.938 306.036C361.025 306.52 360.917 307.365 362.967 310.627C364.046 312.198 364.154 313.406 363.399 314.373C361.672 316.668 360.917 316.306 359.407 312.56L358.004 309.298L355.63 312.681C353.58 315.46 353.041 315.702 351.314 314.373C349.588 312.923 349.588 312.681 351.638 310.627C354.659 307.486 354.443 306.64 350.667 305.674C347.214 304.828 346.89 304.224 348.401 301.566C349.048 300.358 349.804 300.237 351.53 301.324C355.306 303.62 356.277 303.016 355.522 299.029C354.875 295.887 355.091 295.404 357.033 295.404C358.867 295.404 359.299 296.129 359.299 299.15Z" fill="#292D32"/>
<path d="M384.438 287.43C380.015 289.726 379.475 292.021 380.015 307.849C380.446 325.73 380.446 325.609 398.357 325.609H412.276L413.894 321.26C417.563 311.352 416.592 290.813 412.276 288.276C411.305 287.672 405.478 286.947 399.22 286.464C390.589 285.98 387.028 286.222 384.438 287.43ZM400.299 299.15C400.299 302.653 400.515 302.774 403.428 302.049C405.694 301.566 406.665 301.808 407.205 303.257C407.744 305.07 407.313 305.432 402.673 307.003C401.594 307.365 401.702 308.211 403.105 310.627C404.723 313.286 404.723 313.89 403.428 314.856C402.349 315.581 401.27 315.098 399.76 313.044L397.602 310.144L395.66 313.044C394.041 315.46 393.286 315.823 392.099 314.615C390.804 313.527 390.912 312.923 392.207 310.748C394.365 307.245 394.257 306.52 391.452 306.036C389.833 305.795 388.97 304.828 388.97 303.257C388.97 300.841 389.294 300.841 394.149 302.291C395.552 302.774 395.983 302.17 395.983 299.15C395.983 296.25 396.415 295.404 398.141 295.404C399.868 295.404 400.299 296.25 400.299 299.15Z" fill="#292D32"/>
<path d="M481.653 300.237C481.653 306.52 481.761 309.178 481.977 305.915C482.193 302.774 482.193 297.7 481.977 294.438C481.761 291.296 481.653 293.954 481.653 300.237Z" fill="#292D32"/>
<path d="M92.1445 318.36C92.1445 324.642 92.2524 327.301 92.4682 324.038C92.684 320.897 92.684 315.823 92.4682 312.561C92.2524 309.419 92.1445 312.077 92.1445 318.36Z" fill="#292D32"/>
<path d="M480.252 317.877C480.252 319.206 480.575 319.568 480.899 318.601C481.223 317.756 481.115 316.668 480.791 316.306C480.467 315.823 480.144 316.548 480.252 317.877Z" fill="#292D32"/>
<path d="M480.576 332.858C480.576 339.865 480.684 342.644 480.9 339.141C481.116 335.758 481.116 329.958 480.9 326.454C480.684 323.072 480.576 325.85 480.576 332.858Z" fill="#292D32"/>
<path d="M92.792 336.483C92.792 339.141 93.1157 341.315 93.6552 341.315C94.0868 341.315 94.3026 339.141 94.0868 336.483C93.871 333.825 93.4394 331.65 93.2236 331.65C93.0078 331.65 92.792 333.825 92.792 336.483Z" fill="#292D32"/>
<path d="M425.98 340.953C430.835 341.195 438.82 341.195 443.783 340.953C448.638 340.832 444.646 340.591 434.827 340.591C425.009 340.591 421.016 340.832 425.98 340.953Z" fill="#292D32"/>
<path d="M110.379 342.161C116.745 342.403 126.996 342.403 133.038 342.161C139.08 342.04 133.901 341.799 121.385 341.799C108.977 341.799 104.013 342.04 110.379 342.161Z" fill="#292D32"/>
<path d="M149.222 342.161C150.193 342.403 151.703 342.403 152.459 342.161C153.106 341.799 152.351 341.557 150.517 341.557C148.79 341.557 148.143 341.799 149.222 342.161Z" fill="#292D32"/>
<path d="M161.091 342.161C163.249 342.403 166.917 342.403 169.183 342.161C171.341 341.92 169.507 341.678 165.083 341.678C160.659 341.678 158.825 341.92 161.091 342.161Z" fill="#292D32"/>
<path d="M282.907 342.161C286.899 342.403 293.697 342.403 298.013 342.161C302.329 342.04 299.092 341.799 290.784 341.799C282.476 341.799 278.915 341.92 282.907 342.161Z" fill="#292D32"/>
<path d="M309.451 342.161C310.206 342.523 311.177 342.403 311.501 342.04C311.932 341.678 311.285 341.315 310.098 341.436C308.911 341.436 308.587 341.799 309.451 342.161Z" fill="#292D32"/>
<path d="M336.425 342.161C349.049 342.403 369.442 342.403 381.742 342.161C394.042 342.04 383.684 341.92 358.76 341.92C333.836 341.92 323.801 342.04 336.425 342.161Z" fill="#292D32"/>
<path d="M64.8464 351.706C64.8464 353.035 65.1701 353.398 65.4937 352.431C65.8174 351.585 65.7095 350.498 65.3858 350.136C65.0622 349.652 64.7385 350.377 64.8464 351.706Z" fill="#292D32"/>
<path d="M479.389 355.21C479.389 358.472 479.604 359.801 479.82 357.868C480.036 356.055 480.036 353.397 479.82 351.827C479.604 350.377 479.389 351.827 479.389 355.21Z" fill="#292D32"/>
<path d="M65.926 356.539C65.926 357.989 66.5734 359.801 67.4366 360.647C68.7314 361.855 68.1919 363.184 63.7681 369.466C55.9995 380.582 41.4333 403.779 43.2676 402.088C44.2386 401.242 47.044 397.013 49.7414 392.664L54.4889 384.81H87.1818H119.875L116.962 390.247C115.451 393.268 114.372 395.684 114.696 395.684C115.019 395.684 116.53 393.268 118.04 390.247L120.954 384.81H172.097C219.788 384.81 223.24 384.931 223.672 386.985C224.104 388.918 224.212 388.918 224.319 386.985C224.427 384.931 227.448 384.81 270.931 384.81C296.611 384.81 317.759 384.569 318.082 384.206C318.406 383.844 310.637 383.602 300.711 383.602H282.8L282.368 380.219L281.937 376.957L281.721 380.219L281.613 383.602H253.668H225.614L225.183 380.823L224.751 378.165L224.535 380.823L224.427 383.602H198.1C173.931 383.602 171.666 383.481 171.234 381.428C170.802 379.494 170.694 379.494 170.587 381.428C170.479 383.481 168.536 383.602 146.094 383.602C126.996 383.602 121.925 383.24 122.572 382.032C123.22 380.823 123.004 380.823 121.817 382.032C120.738 383.24 112.538 383.602 88.2608 383.602C70.5656 383.602 56.1073 383.361 56.1073 382.998C56.1073 382.636 58.8048 378.286 62.1496 373.333L68.1919 364.271H99.9137C117.393 364.271 131.636 364.634 131.636 364.996C131.636 365.479 130.017 368.258 128.075 371.4C126.133 374.42 124.083 377.803 123.651 378.77C122.248 381.79 127.104 374.903 130.341 369.466L133.254 364.271H180.405H227.664L227.125 368.137L226.585 372.124L227.664 368.137L228.851 364.271H255.718H282.584L283.016 368.741L283.447 373.333L283.555 368.741L283.771 364.271H310.098C330.167 364.271 336.641 364.634 336.964 365.721C337.396 366.929 337.612 366.929 337.612 365.721C337.72 364.634 343.546 364.271 362.968 364.271C382.173 364.271 388.431 364.634 388.755 365.721C389.187 366.929 389.403 366.929 389.403 365.721C389.51 364.634 394.905 364.271 412.493 364.271H435.475L437.417 371.037C438.496 374.782 439.575 377.561 439.791 377.199C440.006 376.957 439.467 374.42 438.604 371.52C437.741 368.741 436.985 365.963 436.985 365.359C436.985 364.754 447.128 364.271 459.536 364.271H482.086L485.539 368.741C488.237 372.366 488.452 372.487 486.726 369.587C485.539 367.533 483.921 365.238 483.058 364.392C481.871 363.425 432.022 363.063 276.002 363.063C81.2475 363.063 70.3498 362.942 68.8392 361.009C67.8682 359.801 66.8971 357.747 66.5734 356.418C66.1418 354.122 66.0339 354.122 65.926 356.539Z" fill="#292D32"/>
<path d="M521.792 360.888C520.821 362.338 520.066 364.15 520.066 364.875C520.174 365.479 520.929 364.633 521.792 362.7C523.303 359.559 525.461 358.23 525.461 360.526C525.461 362.338 521.037 367.896 520.066 367.291C519.526 366.929 518.555 367.654 518.016 368.983C515.211 374.782 517.476 373.816 522.656 366.929C524.813 364.029 526.54 360.888 526.54 359.922C526.54 357.263 523.627 357.868 521.792 360.888Z" fill="#292D32"/>
<path d="M337.935 370.916C337.935 372.849 338.15 373.574 338.474 372.366C338.69 371.279 338.69 369.587 338.474 368.741C338.15 368.016 337.935 368.862 337.935 370.916Z" fill="#292D32"/>
<path d="M225.722 375.145C225.722 376.836 225.937 377.44 226.261 376.595C226.477 375.87 226.477 374.42 226.261 373.574C225.937 372.849 225.722 373.453 225.722 375.145Z" fill="#292D32"/>
<path d="M339.014 378.165C339.014 380.098 339.229 380.823 339.553 379.615C339.769 378.528 339.769 376.836 339.553 375.991C339.229 375.266 339.014 376.111 339.014 378.165Z" fill="#292D32"/>
<path d="M540.459 377.199C539.272 379.011 539.272 379.132 540.567 377.803C541.43 377.078 542.941 376.353 544.128 376.353C547.688 376.353 545.53 379.253 538.841 383.24C531.396 387.831 531.719 388.556 539.272 384.327C545.099 381.065 547.58 378.286 546.501 376.353C545.422 374.42 542.078 374.903 540.459 377.199Z" fill="#292D32"/>
<path d="M487.157 378.769L482.841 379.615L487.48 379.857C491.904 379.978 492.228 380.219 496.436 387.831C498.918 392.18 501.075 395.684 501.399 395.684C501.939 395.684 501.723 395.201 496.004 385.052C493.738 380.944 491.688 377.682 491.688 377.682C491.581 377.803 489.53 378.286 487.157 378.769Z" fill="#292D32"/>
<path d="M440.653 380.823C440.977 383.119 440.545 383.481 436.553 383.965C432.992 384.327 433.424 384.448 438.495 384.569C443.782 384.81 444.645 384.569 443.242 383.24C442.271 382.515 441.192 380.944 440.869 379.978C440.545 379.011 440.437 379.373 440.653 380.823Z" fill="#292D32"/>
<path d="M535.171 381.427C533.66 382.756 531.287 384.931 529.884 386.139C526.971 388.797 527.402 390.61 530.531 388.556C531.61 387.831 532.042 387.227 531.395 387.227C530.855 387.227 532.258 385.294 534.631 382.998C537.005 380.703 538.732 378.89 538.408 378.89C538.084 378.89 536.682 379.978 535.171 381.427Z" fill="#292D32"/>
<path d="M475.072 380.824C476.043 381.065 477.769 381.065 478.848 380.824C479.819 380.461 478.956 380.22 476.906 380.22C474.856 380.22 473.993 380.461 475.072 380.824Z" fill="#292D32"/>
<path d="M463.744 382.032C465.038 382.273 467.196 382.273 468.599 382.032C469.894 381.79 468.815 381.548 466.117 381.548C463.42 381.548 462.341 381.79 463.744 382.032Z" fill="#292D32"/>
<path d="M339.876 383.24C339.876 384.206 338.042 384.931 334.805 385.052L329.626 385.173L334.481 385.656C337.071 386.019 339.66 386.864 340.092 387.589C340.739 388.677 340.955 388.677 340.955 387.469C340.955 386.502 343.761 385.898 350.99 385.777L360.916 385.535L351.205 385.173C345.271 384.811 341.279 384.206 340.739 383.24C340.092 382.152 339.876 382.152 339.876 383.24Z" fill="#292D32"/>
<path d="M451.335 383.24C452.953 383.482 455.543 383.482 457.269 383.24C458.888 382.998 457.485 382.757 454.248 382.757C451.011 382.757 449.609 382.998 451.335 383.24Z" fill="#292D32"/>
<path d="M381.957 386.14C370.843 386.744 371.059 386.744 387.244 386.986C396.415 387.106 403.644 386.986 403.428 386.744C402.457 385.777 392.531 385.415 381.957 386.14Z" fill="#292D32"/>
<path d="M416.269 385.656C418.75 385.898 422.85 385.898 425.44 385.656C427.921 385.414 425.871 385.173 420.8 385.173C415.729 385.173 413.679 385.414 416.269 385.656Z" fill="#292D32"/>
<path d="M442.487 387.227C442.487 388.194 442.919 389.885 443.458 390.852C444.753 393.026 444.753 391.093 443.458 387.831C442.811 386.26 442.487 386.019 442.487 387.227Z" fill="#292D32"/>
<path d="M166.918 393.509C165.947 397.013 165.299 400.034 165.515 400.275C165.731 400.517 166.81 397.859 167.781 394.476C168.752 391.093 169.4 388.073 169.184 387.831C168.968 387.469 167.889 390.127 166.918 393.509Z" fill="#292D32"/>
<path d="M280.75 390.851C280.75 393.147 280.966 394.114 281.289 392.905C281.505 391.818 281.505 389.885 281.289 388.677C280.966 387.589 280.75 388.556 280.75 390.851Z" fill="#292D32"/>
<path d="M395.12 389.643C395.12 390.61 395.768 393.388 396.523 395.684C397.278 397.98 397.925 399.067 397.925 398.1C397.925 397.134 397.278 394.355 396.523 392.059C395.768 389.764 395.12 388.677 395.12 389.643Z" fill="#292D32"/>
<path d="M222.484 392.06C222.484 393.751 222.7 394.355 223.024 393.51C223.24 392.785 223.24 391.335 223.024 390.489C222.7 389.764 222.484 390.368 222.484 392.06Z" fill="#292D32"/>
<path d="M341.172 392.664C341.172 394.597 341.388 395.322 341.711 394.113C341.927 393.026 341.927 391.335 341.711 390.489C341.388 389.764 341.172 390.61 341.172 392.664Z" fill="#292D32"/>
<path d="M444.645 394.476C444.645 395.443 445.076 397.376 445.616 398.705C446.155 400.275 446.587 400.396 446.587 399.309C446.587 398.342 446.155 396.409 445.616 395.08C445.076 393.509 444.645 393.389 444.645 394.476Z" fill="#292D32"/>
<path d="M221.405 398.101C221.405 399.792 221.621 400.396 221.945 399.551C222.161 398.826 222.161 397.376 221.945 396.53C221.621 395.805 221.405 396.409 221.405 398.101Z" fill="#292D32"/>
<path d="M342.251 399.913C342.251 401.846 342.467 402.571 342.79 401.363C343.006 400.275 343.006 398.584 342.79 397.738C342.467 397.013 342.251 397.859 342.251 399.913Z" fill="#292D32"/>
<path d="M502.802 399.188C503.341 400.517 504.42 401.967 505.068 402.45C505.715 402.813 505.391 401.846 504.42 400.034C502.262 396.409 501.183 395.805 502.802 399.188Z" fill="#292D32"/>
<path d="M279.671 402.329C279.671 404.263 279.887 404.988 280.21 403.779C280.426 402.692 280.426 401 280.21 400.155C279.887 399.43 279.671 400.276 279.671 402.329Z" fill="#292D32"/>
<path d="M398.25 401.121C398.358 403.417 400.192 407.283 400.192 405.35C400.192 404.383 399.761 402.692 399.221 401.725C398.682 400.759 398.25 400.396 398.25 401.121Z" fill="#292D32"/>
<path d="M110.163 404.987C109.084 408.129 109.084 408.249 110.595 406.075C111.458 404.746 112.213 403.296 112.213 402.692C112.213 400.879 111.458 401.725 110.163 404.987Z" fill="#292D32"/>
<path d="M220.326 404.141C220.326 405.833 220.542 406.437 220.866 405.591C221.081 404.866 221.081 403.417 220.866 402.571C220.542 401.846 220.326 402.45 220.326 404.141Z" fill="#292D32"/>
<path d="M163.572 404.746C162.601 407.887 162.817 408.612 164.112 406.196C164.759 404.988 165.083 403.658 164.759 403.417C164.543 403.054 164.004 403.658 163.572 404.746Z" fill="#292D32"/>
<path d="M39.2747 406.8L37.2246 409.579L39.7063 407.283C41.9721 405.108 42.6195 404.142 41.7563 404.142C41.5405 404.142 40.4615 405.35 39.2747 406.8Z" fill="#292D32"/>
<path d="M506.686 405.592C507.117 406.437 514.238 418.761 522.439 433.018C530.639 447.153 537.113 459.115 536.897 459.477C536.573 459.84 519.202 459.356 498.378 458.39L460.398 456.698L458.995 452.47L457.592 448.241L458.132 452.47L458.671 456.698L449.176 456.336C443.997 456.094 432.884 455.49 424.576 455.128C416.268 454.644 403.428 454.644 395.983 455.007C388.538 455.49 374.403 456.094 364.477 456.577L346.458 457.423L346.026 443.771L345.703 430.118L345.487 443.529L345.271 457.061L326.173 457.786C315.599 458.269 300.709 458.631 293.049 458.873L279.022 459.115L278.267 456.094L277.512 453.074L277.404 456.336L277.296 459.719H243.632C225.073 459.719 209.212 459.235 208.457 458.752C207.702 458.148 207.378 456.698 207.702 455.369C208.133 453.799 207.918 453.919 207.054 455.732C206.191 457.665 204.789 458.511 202.523 458.511C193.351 458.511 151.487 455.732 151.056 455.007C150.732 454.644 143.934 454.282 135.95 454.161C127.966 454.161 102.718 453.194 79.8434 451.986C56.9691 450.899 32.5843 450.053 25.571 450.174L12.947 450.416V462.86C12.947 481.949 8.09158 480.137 62.0403 481.104C86.9646 481.466 203.278 481.95 320.563 481.95C566.029 481.95 539.486 483.52 539.486 469.143V460.564L523.194 432.293C514.238 416.828 506.686 404.142 506.362 404.142C506.146 404.142 506.254 404.867 506.686 405.592Z" fill="#292D32"/>
<path d="M343.33 408.37C343.33 410.303 343.546 411.028 343.87 409.82C344.085 408.733 344.085 407.041 343.87 406.196C343.546 405.471 343.33 406.316 343.33 408.37Z" fill="#292D32"/>
<path d="M447.882 407.283C447.882 408.612 448.206 408.974 448.53 408.008C448.854 407.162 448.746 406.075 448.422 405.712C448.098 405.229 447.775 405.954 447.882 407.283Z" fill="#292D32"/>
<path d="M277.944 412.962C277.405 416.828 277.297 420.332 277.728 420.694C278.052 421.177 278.376 420.09 278.376 418.519C278.376 416.828 278.807 415.015 279.239 414.291C279.778 413.686 279.886 411.512 279.455 409.579C278.807 406.437 278.591 406.8 277.944 412.962Z" fill="#292D32"/>
<path d="M219.14 409.7C219.14 411.029 219.464 411.391 219.788 410.424C220.111 409.579 220.003 408.491 219.68 408.129C219.356 407.646 219.032 408.371 219.14 409.7Z" fill="#292D32"/>
<path d="M400.623 411.028C400.731 413.324 401.378 415.016 402.242 415.016C403.213 415.016 403.32 414.411 402.673 412.841C402.134 411.753 401.378 409.941 401.055 408.975C400.731 408.008 400.623 408.975 400.623 411.028Z" fill="#292D32"/>
<path d="M547.041 410.303C543.804 411.512 540.675 413.203 540.135 413.807C538.732 415.378 546.933 415.257 552.975 413.807C556.536 412.961 555.888 412.841 549.738 413.324L542.185 413.807L549.199 410.908C553.083 409.216 555.457 408.008 554.593 408.008C553.73 407.887 550.278 408.974 547.041 410.303Z" fill="#292D32"/>
<path d="M559.988 409.216C559.988 410.304 559.34 411.512 558.693 411.753C557.614 412.237 557.614 412.478 558.693 412.478C560.204 412.599 561.714 409.337 560.635 408.129C560.311 407.646 559.988 408.25 559.988 409.216Z" fill="#292D32"/>
<path d="M107.249 410.787C106.71 412.116 104.552 412.599 98.294 412.841L90.0938 413.082L97.4308 413.445C101.423 413.687 104.66 414.17 104.66 414.532C104.66 414.895 103.689 416.949 102.394 419.003C100.56 422.144 100.776 422.023 103.581 418.278L107.034 413.807L126.024 413.566L145.121 413.324L126.455 412.962C110.378 412.599 107.789 412.237 108.328 410.787C108.652 409.82 108.652 408.975 108.328 408.975C108.113 408.975 107.573 409.82 107.249 410.787Z" fill="#292D32"/>
<path d="M160.876 413.928C159.149 420.331 160.012 421.298 161.847 415.015C162.602 412.357 163.033 409.941 162.71 409.578C162.386 409.216 161.631 411.149 160.876 413.928Z" fill="#292D32"/>
<path d="M32.692 415.861C26.1103 424.681 17.6943 437.971 18.5575 437.971C18.7733 437.971 22.3339 432.776 26.434 426.493C30.642 420.211 34.6342 415.016 35.4974 415.016C36.3606 415.016 36.6843 414.653 36.3606 414.17C35.929 413.807 36.1448 412.72 36.7921 411.753C37.4395 410.908 37.7632 410.183 37.4395 410.183C37.1158 410.183 34.9579 412.72 32.692 415.861Z" fill="#292D32"/>
<path d="M448.962 411.632C448.854 413.566 446.804 413.807 426.519 414.17L404.076 414.411L426.843 414.774L449.609 415.015L450.796 418.882L451.983 422.869L451.443 419.002L450.796 415.015L478.741 414.653L506.579 414.411L478.31 414.049C452.414 413.807 450.04 413.686 449.609 411.632C449.177 409.699 449.069 409.699 448.962 411.632Z" fill="#292D32"/>
<path d="M85.0235 413.445C85.6709 413.687 86.9657 413.687 87.7209 413.445C88.3683 413.083 87.8288 412.841 86.3183 412.841C84.8077 412.841 84.2682 413.083 85.0235 413.445Z" fill="#292D32"/>
<path d="M217.953 414.412C217.953 415.378 218.169 416.224 218.385 416.224C218.601 416.224 219.032 415.378 219.464 414.412C219.787 413.445 219.572 412.599 219.032 412.599C218.385 412.599 217.953 413.445 217.953 414.412Z" fill="#292D32"/>
<path d="M316.678 413.807L343.653 414.411L344.3 420.452L344.948 426.493L345.055 419.486L345.271 412.599L317.542 412.841L289.704 413.082L316.678 413.807Z" fill="#292D32"/>
<path d="M348.832 413.445C349.803 413.687 351.314 413.687 352.069 413.445C352.716 413.083 351.961 412.841 350.127 412.841C348.401 412.841 347.753 413.083 348.832 413.445Z" fill="#292D32"/>
<path d="M217.089 421.056C217.089 422.748 217.305 423.352 217.628 422.506C217.844 421.781 217.844 420.332 217.628 419.486C217.305 418.761 217.089 419.365 217.089 421.056Z" fill="#292D32"/>
<path d="M403.644 421.781C403.644 423.11 403.968 423.473 404.292 422.506C404.615 421.66 404.507 420.573 404.184 420.211C403.86 419.727 403.536 420.452 403.644 421.781Z" fill="#292D32"/>
<path d="M276.541 427.701C276.541 430.964 276.757 432.293 276.973 430.359C277.188 428.547 277.188 425.889 276.973 424.318C276.757 422.869 276.541 424.318 276.541 427.701Z" fill="#292D32"/>
<path d="M95.4892 429.755C93.2233 433.259 90.2022 437.971 88.6916 440.025C87.289 442.2 86.3179 444.012 86.6416 444.012C87.0732 444.012 97.8629 428.306 99.6972 424.923C101.531 421.419 99.3735 423.956 95.4892 429.755Z" fill="#292D32"/>
<path d="M452.198 426.614C452.198 427.943 452.522 428.306 452.845 427.339C453.169 426.493 453.061 425.406 452.737 425.043C452.414 424.56 452.09 425.285 452.198 426.614Z" fill="#292D32"/>
<path d="M404.831 430.722C404.831 432.413 405.047 433.017 405.371 432.172C405.586 431.447 405.586 429.997 405.371 429.151C405.047 428.426 404.831 429.03 404.831 430.722Z" fill="#292D32"/>
<path d="M214.285 432.655C213.854 434.347 213.746 436.038 213.961 436.401C214.285 436.642 214.825 435.434 215.148 433.622C215.58 431.93 215.688 430.239 215.472 429.876C215.148 429.635 214.609 430.843 214.285 432.655Z" fill="#292D32"/>
<path d="M453.277 431.447C453.277 432.776 453.601 433.139 453.924 432.172C454.248 431.326 454.14 430.239 453.817 429.876C453.493 429.393 453.169 430.118 453.277 431.447Z" fill="#292D32"/>
<path d="M154.94 435.071C154.509 436.763 154.401 438.454 154.617 438.817C154.94 439.058 155.48 437.85 155.804 436.038C156.235 434.346 156.343 432.655 156.127 432.292C155.804 432.051 155.264 433.259 154.94 435.071Z" fill="#292D32"/>
<path d="M405.91 436.763C405.91 438.454 406.126 439.058 406.45 438.213C406.665 437.488 406.665 436.038 406.45 435.192C406.126 434.467 405.91 435.071 405.91 436.763Z" fill="#292D32"/>
<path d="M454.356 437.488C454.356 438.817 454.68 439.18 455.004 438.213C455.327 437.367 455.219 436.28 454.896 435.917C454.572 435.434 454.248 436.159 454.356 437.488Z" fill="#292D32"/>
<path d="M212.127 439.783C211.156 442.925 211.372 443.65 212.666 441.233C213.314 440.025 213.637 438.696 213.314 438.454C213.098 438.092 212.559 438.696 212.127 439.783Z" fill="#292D32"/>
<path d="M16.7233 440.508C16.2918 441.233 16.1839 441.958 16.5075 442.321C16.7233 442.683 17.2628 442.079 17.5865 440.992C18.3418 438.938 17.6944 438.575 16.7233 440.508Z" fill="#292D32"/>
<path d="M276.541 447.033C276.541 450.295 276.757 451.624 276.973 449.691C277.188 447.878 277.188 445.22 276.973 443.65C276.757 442.2 276.541 443.65 276.541 447.033Z" fill="#292D32"/>
<path d="M406.989 444.012C406.989 445.703 407.205 446.308 407.529 445.462C407.745 444.737 407.745 443.287 407.529 442.441C407.205 441.716 406.989 442.32 406.989 444.012Z" fill="#292D32"/>
<path d="M152.244 445.945C152.244 447.274 152.568 447.637 152.891 446.67C153.215 445.825 153.107 444.737 152.783 444.375C152.46 443.891 152.136 444.616 152.244 445.945Z" fill="#292D32"/>
<path d="M209.429 447.758C208.782 449.932 208.458 451.866 208.674 452.107C208.89 452.349 209.645 450.899 210.292 448.724C210.94 446.549 211.264 444.616 211.048 444.375C210.832 444.133 210.077 445.583 209.429 447.758Z" fill="#292D32"/>
<path d="M456.514 445.945C456.514 447.274 456.838 447.637 457.162 446.67C457.485 445.825 457.378 444.737 457.054 444.375C456.73 443.891 456.406 444.616 456.514 445.945Z" fill="#292D32"/>
<path d="M84.1604 447.033C83.4051 448.12 82.9735 449.086 83.1893 449.449C83.513 449.691 84.2683 448.845 85.0236 447.637C86.5342 444.737 86.1026 444.495 84.1604 447.033Z" fill="#292D32"/>
<path d="M408.068 450.053C408.068 451.745 408.284 452.349 408.608 451.503C408.824 450.778 408.824 449.328 408.608 448.483C408.284 447.758 408.068 448.362 408.068 450.053Z" fill="#292D32"/>
</svg>
