<svg width="41" height="41" viewBox="0 0 41 41" fill="none" xmlns="http://www.w3.org/2000/svg">
<path fill-rule="evenodd" clip-rule="evenodd" d="M0 8C0 4.22876 0 2.34315 1.17157 1.17157C2.34315 0 4.22876 0 8 0H33C36.7712 0 38.6569 0 39.8284 1.17157C41 2.34315 41 4.22876 41 8V33C41 36.7712 41 38.6569 39.8284 39.8284C38.6569 41 36.7712 41 33 41H8C4.22876 41 2.34315 41 1.17157 39.8284C0 38.6569 0 36.7712 0 33V8ZM12.4035 30.4484C14.7262 28.6661 17.5722 27.7 20.5 27.7C23.4278 27.7 26.2738 28.6661 28.5965 30.4484C30.9193 32.2307 32.589 34.7297 33.3468 37.5577C33.4898 38.0912 33.1732 38.6395 32.6397 38.7825C32.1062 38.9254 31.5579 38.6088 31.415 38.0753C30.7711 35.6726 29.3525 33.5494 27.379 32.0351C25.4055 30.5208 22.9875 29.7 20.5 29.7C18.0125 29.7 15.5945 30.5208 13.621 32.0351C11.6475 33.5494 10.2289 35.6726 9.58504 38.0753C9.4421 38.6088 8.89376 38.9254 8.36029 38.7824C7.82683 38.6395 7.51025 38.0912 7.65319 37.5577C8.41095 34.7297 10.0807 32.2307 12.4035 30.4484ZM15.35 14.35C15.35 11.5057 17.6557 9.2 20.5 9.2C23.3443 9.2 25.65 11.5057 25.65 14.35C25.65 17.1943 23.3443 19.5 20.5 19.5C17.6557 19.5 15.35 17.1943 15.35 14.35ZM20.5 7.2C16.5512 7.2 13.35 10.4012 13.35 14.35C13.35 18.2988 16.5512 21.5 20.5 21.5C24.4488 21.5 27.65 18.2988 27.65 14.35C27.65 10.4012 24.4488 7.2 20.5 7.2Z" fill="#14CC5E"/>
<rect x="0.5" y="0.5" width="40" height="40" rx="3.5" stroke="#14CC5E"/>
</svg>
