<svg width="337" height="220" viewBox="0 0 337 239" fill="none" xmlns="http://www.w3.org/2000/svg">
<path d="M196.537 42.1329C202.842 42.1329 207.954 37.1402 207.954 30.9815C207.954 24.8227 202.842 19.8301 196.537 19.8301C190.231 19.8301 185.12 24.8227 185.12 30.9815C185.12 37.1402 190.231 42.1329 196.537 42.1329Z" fill="#F2F2F2"/>
<path d="M285.102 207.632C302.072 195.007 310.178 173.793 305.103 153.555C304.977 153.052 304.844 152.55 304.704 152.05C301.34 140.037 293.017 128.62 280.887 124.781C270.702 121.558 259.585 124.037 248.96 122.755C228.101 120.239 211.93 103.755 200.551 86.4955C189.173 69.2362 180.428 49.9169 165.309 35.6581C140.387 12.1551 99.7327 7.09486 68.8329 22.3936C37.9332 37.6924 18.2504 71.634 19.0898 105.461C19.9293 139.288 40.4891 171.629 70.3472 188.788C81.3158 195.092 94.0021 199.557 106.628 197.995C117.582 196.639 127.536 190.889 138.44 189.182C155.582 186.499 172.616 194.069 187.443 202.891C202.27 211.713 216.592 222.169 233.441 226.259C249.801 230.23 270.07 218.816 285.102 207.632Z" fill="#14CC5E"/>
<path d="M260.72 23.1041C260.348 22.8618 259.972 22.6321 259.6 22.3982C248.846 15.6808 237.32 10.2236 225.26 6.13937L222.464 43.8192H204.736V0.638995C203.62 0.413467 202.495 0.200469 201.371 0V43.8192H180.303C168.705 43.8192 157.582 39.3192 149.382 31.309C141.181 23.2989 136.573 12.4348 136.573 1.1068C135.445 1.34486 134.324 1.59959 133.204 1.87106V43.8192H116.045L113.381 7.8893C100.987 12.532 89.2208 18.6373 78.3441 26.0693C78.156 26.1946 77.9679 26.3241 77.784 26.4494C76.839 27.0968 75.9069 27.7566 74.979 28.4249V172.174H125.55L124.656 160.083L119.739 93.6984H218.765L213.848 160.083L212.954 172.174H262.965V24.5575C262.221 24.0647 261.473 23.5802 260.72 23.1041ZM133.204 82.7353H118.927L116.289 47.1102H133.204V82.7353ZM201.371 82.7353H177.391V82.0294C177.391 81.6901 177.323 81.3542 177.19 81.0408C177.057 80.7273 176.862 80.4426 176.616 80.2029C176.37 79.9632 176.078 79.7731 175.757 79.6437C175.436 79.5142 175.092 79.4479 174.744 79.4484H164.32C163.973 79.4483 163.629 79.515 163.308 79.6446C162.988 79.7743 162.696 79.9644 162.451 80.2041C162.206 80.4438 162.011 80.7284 161.878 81.0416C161.745 81.3548 161.677 81.6905 161.677 82.0294V82.7353H136.573V47.1102H201.371V82.7353ZM204.736 82.7353V47.1102H222.22L219.582 82.7353H204.736Z" fill="#3F3D56"/>
<path d="M0.562988 181.379C4.27758 185.678 8.29533 189.718 12.5868 193.47L324.976 193.887C329.268 190.136 333.285 186.096 337 181.797L0.562988 181.379Z" fill="#3F3D56"/>
<path d="M212.404 142.664V178.457C212.405 178.913 212.59 179.351 212.921 179.673C213.251 179.996 213.699 180.177 214.166 180.178H268.472C268.939 180.177 269.386 179.996 269.717 179.673C270.047 179.351 270.232 178.913 270.233 178.457V142.664C270.232 142.208 270.046 141.771 269.716 141.449C269.385 141.127 268.938 140.946 268.472 140.945H214.166C213.699 140.946 213.252 141.127 212.921 141.449C212.591 141.771 212.405 142.208 212.404 142.664Z" fill="#3F3D56"/>
<path d="M213.678 143.109V178.016C213.679 178.259 213.778 178.493 213.954 178.665C214.131 178.838 214.37 178.935 214.62 178.935H268.019C268.269 178.935 268.508 178.838 268.685 178.665C268.861 178.493 268.96 178.259 268.961 178.016V143.109C268.961 142.865 268.862 142.631 268.685 142.458C268.509 142.285 268.269 142.188 268.019 142.188H214.62C214.37 142.188 214.13 142.285 213.954 142.458C213.777 142.631 213.678 142.865 213.678 143.109Z" fill="white"/>
<path d="M211.268 185.438C211.368 185.56 211.494 185.658 211.638 185.725C211.782 185.793 211.94 185.827 212.099 185.826H270.248C270.407 185.826 270.564 185.791 270.708 185.724C270.851 185.658 270.978 185.56 271.078 185.44C271.178 185.319 271.25 185.178 271.287 185.027C271.324 184.876 271.327 184.719 271.294 184.567L270.392 180.379C270.354 180.208 270.274 180.049 270.157 179.917C270.041 179.784 269.892 179.682 269.725 179.62C269.604 179.574 269.476 179.55 269.346 179.55H212.998C212.869 179.55 212.74 179.574 212.619 179.62C212.452 179.682 212.303 179.784 212.187 179.917C212.071 180.049 211.99 180.208 211.953 180.379L211.05 184.567C211.018 184.719 211.021 184.876 211.059 185.027C211.096 185.177 211.168 185.318 211.268 185.438Z" fill="#2F2E41"/>
<path d="M267.351 181.354H268.724C268.839 181.354 268.933 181.262 268.933 181.15V180.508C268.933 180.395 268.839 180.304 268.724 180.304H267.351C267.235 180.304 267.142 180.395 267.142 180.508V181.15C267.142 181.262 267.235 181.354 267.351 181.354Z" fill="#3F3D56"/>
<path d="M263.769 181.354H265.142C265.257 181.354 265.351 181.262 265.351 181.15V180.508C265.351 180.395 265.257 180.304 265.142 180.304H263.769C263.653 180.304 263.56 180.395 263.56 180.508V181.15C263.56 181.262 263.653 181.354 263.769 181.354Z" fill="#3F3D56"/>
<path d="M260.187 181.354H261.56C261.676 181.354 261.769 181.262 261.769 181.15V180.508C261.769 180.395 261.676 180.304 261.56 180.304H260.187C260.072 180.304 259.978 180.395 259.978 180.508V181.15C259.978 181.262 260.072 181.354 260.187 181.354Z" fill="#3F3D56"/>
<path d="M256.605 181.354H257.978C258.094 181.354 258.187 181.262 258.187 181.15V180.508C258.187 180.395 258.094 180.304 257.978 180.304H256.605C256.49 180.304 256.396 180.395 256.396 180.508V181.15C256.396 181.262 256.49 181.354 256.605 181.354Z" fill="#3F3D56"/>
<path d="M253.023 181.354H254.396C254.512 181.354 254.605 181.262 254.605 181.15V180.508C254.605 180.395 254.512 180.304 254.396 180.304H253.023C252.908 180.304 252.814 180.395 252.814 180.508V181.15C252.814 181.262 252.908 181.354 253.023 181.354Z" fill="#3F3D56"/>
<path d="M249.441 181.354H250.814C250.93 181.354 251.023 181.262 251.023 181.15V180.508C251.023 180.395 250.93 180.304 250.814 180.304H249.441C249.326 180.304 249.232 180.395 249.232 180.508V181.15C249.232 181.262 249.326 181.354 249.441 181.354Z" fill="#3F3D56"/>
<path d="M245.859 181.354H247.232C247.348 181.354 247.441 181.262 247.441 181.15V180.508C247.441 180.395 247.348 180.304 247.232 180.304H245.859C245.744 180.304 245.65 180.395 245.65 180.508V181.15C245.65 181.262 245.744 181.354 245.859 181.354Z" fill="#3F3D56"/>
<path d="M242.277 181.354H243.651C243.766 181.354 243.859 181.262 243.859 181.15V180.508C243.859 180.395 243.766 180.304 243.651 180.304H242.277C242.162 180.304 242.068 180.395 242.068 180.508V181.15C242.068 181.262 242.162 181.354 242.277 181.354Z" fill="#3F3D56"/>
<path d="M238.695 181.354H240.069C240.184 181.354 240.277 181.262 240.277 181.15V180.508C240.277 180.395 240.184 180.304 240.069 180.304H238.695C238.58 180.304 238.486 180.395 238.486 180.508V181.15C238.486 181.262 238.58 181.354 238.695 181.354Z" fill="#3F3D56"/>
<path d="M235.113 181.354H236.487C236.602 181.354 236.696 181.262 236.696 181.15V180.508C236.696 180.395 236.602 180.304 236.487 180.304H235.113C234.998 180.304 234.905 180.395 234.905 180.508V181.15C234.905 181.262 234.998 181.354 235.113 181.354Z" fill="#3F3D56"/>
<path d="M231.531 181.354H232.905C233.02 181.354 233.114 181.262 233.114 181.15V180.508C233.114 180.395 233.02 180.304 232.905 180.304H231.531C231.416 180.304 231.323 180.395 231.323 180.508V181.15C231.323 181.262 231.416 181.354 231.531 181.354Z" fill="#3F3D56"/>
<path d="M227.949 181.354H229.323C229.438 181.354 229.531 181.262 229.531 181.15V180.508C229.531 180.395 229.438 180.304 229.323 180.304H227.949C227.834 180.304 227.741 180.395 227.741 180.508V181.15C227.741 181.262 227.834 181.354 227.949 181.354Z" fill="#3F3D56"/>
<path d="M224.367 181.354H225.741C225.856 181.354 225.95 181.262 225.95 181.15V180.508C225.95 180.395 225.856 180.304 225.741 180.304H224.367C224.252 180.304 224.159 180.395 224.159 180.508V181.15C224.159 181.262 224.252 181.354 224.367 181.354Z" fill="#3F3D56"/>
<path d="M220.786 181.354H222.159C222.274 181.354 222.368 181.262 222.368 181.15V180.508C222.368 180.395 222.274 180.304 222.159 180.304H220.786C220.67 180.304 220.577 180.395 220.577 180.508V181.15C220.577 181.262 220.67 181.354 220.786 181.354Z" fill="#3F3D56"/>
<path d="M217.204 181.354H218.577C218.692 181.354 218.786 181.262 218.786 181.15V180.508C218.786 180.395 218.692 180.304 218.577 180.304H217.204C217.088 180.304 216.995 180.395 216.995 180.508V181.15C216.995 181.262 217.088 181.354 217.204 181.354Z" fill="#3F3D56"/>
<path d="M213.622 181.354H214.995C215.11 181.354 215.204 181.262 215.204 181.15V180.508C215.204 180.395 215.11 180.304 214.995 180.304H213.622C213.506 180.304 213.413 180.395 213.413 180.508V181.15C213.413 181.262 213.506 181.354 213.622 181.354Z" fill="#3F3D56"/>
<path d="M267.393 183.103H268.766C268.882 183.103 268.975 183.012 268.975 182.899V182.257C268.975 182.145 268.882 182.053 268.766 182.053H267.393C267.278 182.053 267.184 182.145 267.184 182.257V182.899C267.184 183.012 267.278 183.103 267.393 183.103Z" fill="#3F3D56"/>
<path d="M263.811 183.103H265.184C265.3 183.103 265.393 183.012 265.393 182.899V182.257C265.393 182.145 265.3 182.053 265.184 182.053H263.811C263.696 182.053 263.602 182.145 263.602 182.257V182.899C263.602 183.012 263.696 183.103 263.811 183.103Z" fill="#3F3D56"/>
<path d="M260.229 183.103H261.603C261.718 183.103 261.811 183.012 261.811 182.899V182.257C261.811 182.145 261.718 182.053 261.603 182.053H260.229C260.114 182.053 260.02 182.145 260.02 182.257V182.899C260.02 183.012 260.114 183.103 260.229 183.103Z" fill="#3F3D56"/>
<path d="M256.647 183.103H258.021C258.136 183.103 258.229 183.012 258.229 182.899V182.257C258.229 182.145 258.136 182.053 258.021 182.053H256.647C256.532 182.053 256.438 182.145 256.438 182.257V182.899C256.438 183.012 256.532 183.103 256.647 183.103Z" fill="#3F3D56"/>
<path d="M253.065 183.103H254.439C254.554 183.103 254.647 183.012 254.647 182.899V182.257C254.647 182.145 254.554 182.053 254.439 182.053H253.065C252.95 182.053 252.857 182.145 252.857 182.257V182.899C252.857 183.012 252.95 183.103 253.065 183.103Z" fill="#3F3D56"/>
<path d="M249.483 183.103H250.857C250.972 183.103 251.065 183.012 251.065 182.899V182.257C251.065 182.145 250.972 182.053 250.857 182.053H249.483C249.368 182.053 249.274 182.145 249.274 182.257V182.899C249.274 183.012 249.368 183.103 249.483 183.103Z" fill="#3F3D56"/>
<path d="M245.901 183.103H247.275C247.39 183.103 247.483 183.012 247.483 182.899V182.257C247.483 182.145 247.39 182.053 247.275 182.053H245.901C245.786 182.053 245.692 182.145 245.692 182.257V182.899C245.692 183.012 245.786 183.103 245.901 183.103Z" fill="#3F3D56"/>
<path d="M242.319 183.103H243.693C243.808 183.103 243.902 183.012 243.902 182.899V182.257C243.902 182.145 243.808 182.053 243.693 182.053H242.319C242.204 182.053 242.111 182.145 242.111 182.257V182.899C242.111 183.012 242.204 183.103 242.319 183.103Z" fill="#3F3D56"/>
<path d="M238.738 183.103H240.111C240.226 183.103 240.32 183.012 240.32 182.899V182.257C240.32 182.145 240.226 182.053 240.111 182.053H238.738C238.622 182.053 238.529 182.145 238.529 182.257V182.899C238.529 183.012 238.622 183.103 238.738 183.103Z" fill="#3F3D56"/>
<path d="M235.156 183.103H236.529C236.644 183.103 236.738 183.012 236.738 182.899V182.257C236.738 182.145 236.644 182.053 236.529 182.053H235.156C235.04 182.053 234.947 182.145 234.947 182.257V182.899C234.947 183.012 235.04 183.103 235.156 183.103Z" fill="#3F3D56"/>
<path d="M231.574 183.103H232.947C233.062 183.103 233.156 183.012 233.156 182.899V182.257C233.156 182.145 233.062 182.053 232.947 182.053H231.574C231.458 182.053 231.365 182.145 231.365 182.257V182.899C231.365 183.012 231.458 183.103 231.574 183.103Z" fill="#3F3D56"/>
<path d="M227.992 183.103H229.365C229.481 183.103 229.574 183.012 229.574 182.899V182.257C229.574 182.145 229.481 182.053 229.365 182.053H227.992C227.876 182.053 227.783 182.145 227.783 182.257V182.899C227.783 183.012 227.876 183.103 227.992 183.103Z" fill="#3F3D56"/>
<path d="M224.41 183.103H225.783C225.898 183.103 225.992 183.012 225.992 182.899V182.257C225.992 182.145 225.898 182.053 225.783 182.053H224.41C224.294 182.053 224.201 182.145 224.201 182.257V182.899C224.201 183.012 224.294 183.103 224.41 183.103Z" fill="#3F3D56"/>
<path d="M220.828 183.103H222.201C222.317 183.103 222.41 183.012 222.41 182.899V182.257C222.41 182.145 222.317 182.053 222.201 182.053H220.828C220.713 182.053 220.619 182.145 220.619 182.257V182.899C220.619 183.012 220.713 183.103 220.828 183.103Z" fill="#3F3D56"/>
<path d="M217.246 183.103H218.619C218.735 183.103 218.828 183.012 218.828 182.899V182.257C218.828 182.145 218.735 182.053 218.619 182.053H217.246C217.131 182.053 217.037 182.145 217.037 182.257V182.899C217.037 183.012 217.131 183.103 217.246 183.103Z" fill="#3F3D56"/>
<path d="M213.664 183.103H215.038C215.153 183.103 215.246 183.012 215.246 182.899V182.257C215.246 182.145 215.153 182.053 215.038 182.053H213.664C213.549 182.053 213.455 182.145 213.455 182.257V182.899C213.455 183.012 213.549 183.103 213.664 183.103Z" fill="#3F3D56"/>
<path d="M237.663 185.202H251.573C251.689 185.202 251.782 185.111 251.782 184.998V184.356C251.782 184.244 251.689 184.153 251.573 184.153H237.663C237.548 184.153 237.454 184.244 237.454 184.356V184.998C237.454 185.111 237.548 185.202 237.663 185.202Z" fill="#3F3D56"/>
<path d="M222.925 149.824H221.71C221.341 149.824 221.042 150.116 221.042 150.476C221.042 150.836 221.341 151.128 221.71 151.128H222.925C223.294 151.128 223.593 150.836 223.593 150.476C223.593 150.116 223.294 149.824 222.925 149.824Z" fill="#14CC5E"/>
<path d="M236.832 149.824H235.616C235.247 149.824 234.948 150.116 234.948 150.476C234.948 150.836 235.247 151.128 235.616 151.128H236.832C237.201 151.128 237.499 150.836 237.499 150.476C237.499 150.116 237.201 149.824 236.832 149.824Z" fill="#14CC5E"/>
<path d="M240.772 149.824H239.556C239.188 149.824 238.889 150.116 238.889 150.476C238.889 150.836 239.188 151.128 239.556 151.128H240.772C241.141 151.128 241.44 150.836 241.44 150.476C241.44 150.116 241.141 149.824 240.772 149.824Z" fill="#14CC5E"/>
<path d="M233.049 149.716H225.492C225.124 149.716 224.825 150.008 224.825 150.368C224.825 150.728 225.124 151.02 225.492 151.02H233.049C233.418 151.02 233.717 150.728 233.717 150.368C233.717 150.008 233.418 149.716 233.049 149.716Z" fill="#14CC5E"/>
<path d="M251.591 149.716H244.034C243.666 149.716 243.367 150.008 243.367 150.368C243.367 150.728 243.666 151.02 244.034 151.02H251.591C251.96 151.02 252.259 150.728 252.259 150.368C252.259 150.008 251.96 149.716 251.591 149.716Z" fill="#14CC5E"/>
<path d="M226.634 152.767H225.418C225.049 152.767 224.75 153.059 224.75 153.419C224.75 153.779 225.049 154.071 225.418 154.071H226.634C227.003 154.071 227.301 153.779 227.301 153.419C227.301 153.059 227.003 152.767 226.634 152.767Z" fill="#E6E6E6"/>
<path d="M240.54 152.767H239.324C238.956 152.767 238.657 153.059 238.657 153.419C238.657 153.779 238.956 154.071 239.324 154.071H240.54C240.909 154.071 241.208 153.779 241.208 153.419C241.208 153.059 240.909 152.767 240.54 152.767Z" fill="#E6E6E6"/>
<path d="M244.481 152.767H243.265C242.896 152.767 242.597 153.059 242.597 153.419C242.597 153.779 242.896 154.071 243.265 154.071H244.481C244.849 154.071 245.148 153.779 245.148 153.419C245.148 153.059 244.849 152.767 244.481 152.767Z" fill="#E6E6E6"/>
<path d="M236.758 152.659H229.2C228.832 152.659 228.533 152.951 228.533 153.311C228.533 153.671 228.832 153.963 229.2 153.963H236.758C237.126 153.963 237.425 153.671 237.425 153.311C237.425 152.951 237.126 152.659 236.758 152.659Z" fill="#E6E6E6"/>
<path d="M255.3 152.659H247.743C247.374 152.659 247.075 152.951 247.075 153.311C247.075 153.671 247.374 153.963 247.743 153.963H255.3C255.669 153.963 255.967 153.671 255.967 153.311C255.967 152.951 255.669 152.659 255.3 152.659Z" fill="#E6E6E6"/>
<path d="M230.342 155.71H229.126C228.758 155.71 228.459 156.002 228.459 156.362C228.459 156.722 228.758 157.014 229.126 157.014H230.342C230.711 157.014 231.01 156.722 231.01 156.362C231.01 156.002 230.711 155.71 230.342 155.71Z" fill="#14CC5E"/>
<path d="M244.249 155.71H243.033C242.664 155.71 242.365 156.002 242.365 156.362C242.365 156.722 242.664 157.014 243.033 157.014H244.249C244.618 157.014 244.916 156.722 244.916 156.362C244.916 156.002 244.618 155.71 244.249 155.71Z" fill="#14CC5E"/>
<path d="M248.189 155.71H246.973C246.605 155.71 246.306 156.002 246.306 156.362C246.306 156.722 246.605 157.014 246.973 157.014H248.189C248.558 157.014 248.857 156.722 248.857 156.362C248.857 156.002 248.558 155.71 248.189 155.71Z" fill="#14CC5E"/>
<path d="M240.466 155.602H232.909C232.541 155.602 232.242 155.893 232.242 156.254C232.242 156.614 232.541 156.906 232.909 156.906H240.466C240.835 156.906 241.134 156.614 241.134 156.254C241.134 155.893 240.835 155.602 240.466 155.602Z" fill="#14CC5E"/>
<path d="M259.008 155.602H251.451C251.083 155.602 250.784 155.893 250.784 156.254C250.784 156.614 251.083 156.906 251.451 156.906H259.008C259.377 156.906 259.676 156.614 259.676 156.254C259.676 155.893 259.377 155.602 259.008 155.602Z" fill="#14CC5E"/>
<path d="M234.051 158.653H232.835C232.466 158.653 232.167 158.945 232.167 159.305C232.167 159.665 232.466 159.957 232.835 159.957H234.051C234.419 159.957 234.718 159.665 234.718 159.305C234.718 158.945 234.419 158.653 234.051 158.653Z" fill="#E6E6E6"/>
<path d="M247.957 158.653H246.741C246.373 158.653 246.074 158.945 246.074 159.305C246.074 159.665 246.373 159.957 246.741 159.957H247.957C248.326 159.957 248.625 159.665 248.625 159.305C248.625 158.945 248.326 158.653 247.957 158.653Z" fill="#E6E6E6"/>
<path d="M251.898 158.653H250.682C250.313 158.653 250.014 158.945 250.014 159.305C250.014 159.665 250.313 159.957 250.682 159.957H251.898C252.266 159.957 252.565 159.665 252.565 159.305C252.565 158.945 252.266 158.653 251.898 158.653Z" fill="#E6E6E6"/>
<path d="M244.175 158.545H236.617C236.249 158.545 235.95 158.837 235.95 159.197C235.95 159.557 236.249 159.849 236.617 159.849H244.175C244.543 159.849 244.842 159.557 244.842 159.197C244.842 158.837 244.543 158.545 244.175 158.545Z" fill="#E6E6E6"/>
<path d="M236.832 170.356H235.616C235.247 170.356 234.948 170.648 234.948 171.008C234.948 171.368 235.247 171.66 235.616 171.66H236.832C237.201 171.66 237.499 171.368 237.499 171.008C237.499 170.648 237.201 170.356 236.832 170.356Z" fill="#E6E6E6"/>
<path d="M240.772 170.356H239.556C239.188 170.356 238.889 170.648 238.889 171.008C238.889 171.368 239.188 171.66 239.556 171.66H240.772C241.141 171.66 241.44 171.368 241.44 171.008C241.44 170.648 241.141 170.356 240.772 170.356Z" fill="#E6E6E6"/>
<path d="M251.591 170.465H244.034C243.666 170.465 243.367 170.757 243.367 171.117C243.367 171.477 243.666 171.769 244.034 171.769H251.591C251.96 171.769 252.259 171.477 252.259 171.117C252.259 170.757 251.96 170.465 251.591 170.465Z" fill="#E6E6E6"/>
<path d="M222.925 170.356H221.71C221.341 170.356 221.042 170.648 221.042 171.008C221.042 171.368 221.341 171.66 221.71 171.66H222.925C223.294 171.66 223.593 171.368 223.593 171.008C223.593 170.648 223.294 170.356 222.925 170.356Z" fill="#E6E6E6"/>
<path d="M233.049 170.465H225.492C225.124 170.465 224.825 170.757 224.825 171.117C224.825 171.477 225.124 171.769 225.492 171.769H233.049C233.418 171.769 233.717 171.477 233.717 171.117C233.717 170.757 233.418 170.465 233.049 170.465Z" fill="#E6E6E6"/>
<path d="M226.634 167.413H225.418C225.049 167.413 224.75 167.705 224.75 168.065C224.75 168.425 225.049 168.717 225.418 168.717H226.634C227.003 168.717 227.301 168.425 227.301 168.065C227.301 167.705 227.003 167.413 226.634 167.413Z" fill="#14CC5E"/>
<path d="M240.54 167.413H239.324C238.956 167.413 238.657 167.705 238.657 168.065C238.657 168.425 238.956 168.717 239.324 168.717H240.54C240.909 168.717 241.208 168.425 241.208 168.065C241.208 167.705 240.909 167.413 240.54 167.413Z" fill="#14CC5E"/>
<path d="M244.481 167.413H243.265C242.896 167.413 242.597 167.705 242.597 168.065C242.597 168.425 242.896 168.717 243.265 168.717H244.481C244.849 168.717 245.148 168.425 245.148 168.065C245.148 167.705 244.849 167.413 244.481 167.413Z" fill="#14CC5E"/>
<path d="M236.758 167.522H229.2C228.832 167.522 228.533 167.814 228.533 168.174C228.533 168.534 228.832 168.826 229.2 168.826H236.758C237.126 168.826 237.425 168.534 237.425 168.174C237.425 167.814 237.126 167.522 236.758 167.522Z" fill="#14CC5E"/>
<path d="M230.342 164.47H229.126C228.758 164.47 228.459 164.762 228.459 165.122C228.459 165.482 228.758 165.774 229.126 165.774H230.342C230.711 165.774 231.01 165.482 231.01 165.122C231.01 164.762 230.711 164.47 230.342 164.47Z" fill="#E6E6E6"/>
<path d="M244.249 164.47H243.033C242.664 164.47 242.365 164.762 242.365 165.122C242.365 165.482 242.664 165.774 243.033 165.774H244.249C244.618 165.774 244.916 165.482 244.916 165.122C244.916 164.762 244.618 164.47 244.249 164.47Z" fill="#E6E6E6"/>
<path d="M248.189 164.47H246.973C246.605 164.47 246.306 164.762 246.306 165.122C246.306 165.482 246.605 165.774 246.973 165.774H248.189C248.558 165.774 248.857 165.482 248.857 165.122C248.857 164.762 248.558 164.47 248.189 164.47Z" fill="#E6E6E6"/>
<path d="M240.466 164.579H232.909C232.541 164.579 232.242 164.871 232.242 165.231C232.242 165.591 232.541 165.883 232.909 165.883H240.466C240.835 165.883 241.134 165.591 241.134 165.231C241.134 164.871 240.835 164.579 240.466 164.579Z" fill="#E6E6E6"/>
<path d="M234.051 161.527H232.835C232.466 161.527 232.167 161.819 232.167 162.179C232.167 162.539 232.466 162.831 232.835 162.831H234.051C234.419 162.831 234.718 162.539 234.718 162.179C234.718 161.819 234.419 161.527 234.051 161.527Z" fill="#14CC5E"/>
<path d="M247.957 161.527H246.741C246.373 161.527 246.074 161.819 246.074 162.179C246.074 162.539 246.373 162.831 246.741 162.831H247.957C248.326 162.831 248.625 162.539 248.625 162.179C248.625 161.819 248.326 161.527 247.957 161.527Z" fill="#14CC5E"/>
<path d="M251.898 161.527H250.682C250.313 161.527 250.014 161.819 250.014 162.179C250.014 162.539 250.313 162.831 250.682 162.831H251.898C252.266 162.831 252.565 162.539 252.565 162.179C252.565 161.819 252.266 161.527 251.898 161.527Z" fill="#14CC5E"/>
<path d="M244.175 161.636H236.617C236.249 161.636 235.95 161.928 235.95 162.288C235.95 162.648 236.249 162.94 236.617 162.94H244.175C244.543 162.94 244.842 162.648 244.842 162.288C244.842 161.928 244.543 161.636 244.175 161.636Z" fill="#14CC5E"/>
<path d="M216.461 204.847L210.753 196.034L228.67 182.083L236.065 174.081C237.026 173.041 238.249 172.266 239.613 171.833C240.976 171.399 242.432 171.323 243.836 171.612C245.239 171.901 246.54 172.544 247.609 173.478C248.677 174.411 249.477 175.602 249.927 176.932C250.593 178.903 250.45 181.05 249.527 182.919C248.604 184.789 246.973 186.235 244.979 186.952L233.285 191.16L216.461 204.847Z" fill="#FFB6B6"/>
<path d="M82.5278 140.947V183.78H113.25V140.947C113.251 140.639 113.15 140.339 112.963 140.091C112.776 139.843 112.513 139.66 112.211 139.569C112.069 139.523 111.92 139.5 111.771 139.502H84.0116C83.817 139.501 83.6242 139.539 83.4443 139.611C83.2644 139.683 83.1009 139.79 82.9631 139.924C82.8253 140.058 82.7159 140.218 82.6412 140.393C82.5665 140.569 82.528 140.757 82.5278 140.947ZM94.5175 155.665C94.5255 154.82 94.8746 154.013 95.4887 153.419C96.1029 152.824 96.9325 152.491 97.7971 152.491C98.6617 152.491 99.4913 152.824 100.105 153.419C100.72 154.013 101.069 154.82 101.077 155.665V160.635C101.072 161.481 100.725 162.292 100.11 162.889C99.4957 163.486 98.664 163.822 97.7971 163.822C96.9302 163.822 96.0985 163.486 95.484 162.889C94.8694 162.292 94.5219 161.481 94.5175 160.635V155.665Z" fill="#2F2E41"/>
<path d="M82.4338 182.411V186.541C82.4345 186.755 82.5216 186.96 82.6761 187.112C82.8305 187.263 83.04 187.349 83.2591 187.351H112.519C112.738 187.35 112.948 187.264 113.103 187.112C113.258 186.961 113.344 186.755 113.344 186.541V182.411H82.4338Z" fill="#3F3D56"/>
<path d="M34.1973 76.4125V154.62C34.1981 155.617 34.6038 156.573 35.3253 157.277C36.0468 157.982 37.0252 158.378 38.0456 158.379H156.702C157.722 158.378 158.701 157.982 159.422 157.277C160.144 156.573 160.55 155.617 160.55 154.62V76.4125C160.548 75.4167 160.142 74.4624 159.42 73.7587C158.699 73.0549 157.722 72.6591 156.702 72.6578H38.0456C37.0261 72.6591 36.0486 73.055 35.3274 73.7587C34.6061 74.4624 34.1997 75.4167 34.1973 76.4125Z" fill="#3F3D56"/>
<path d="M36.981 77.3856V153.656C36.9819 154.188 37.1989 154.699 37.5844 155.075C37.9699 155.452 38.4925 155.664 39.0377 155.665H155.714C156.26 155.664 156.782 155.452 157.168 155.075C157.553 154.699 157.77 154.188 157.771 153.656V77.3856C157.771 76.8525 157.554 76.3411 157.169 75.9637C156.783 75.5863 156.26 75.3737 155.714 75.3726H39.0377C38.4918 75.3737 37.9687 75.5863 37.5832 75.9637C37.1976 76.3411 36.981 76.8525 36.981 77.3856Z" fill="white"/>
<path d="M58.6341 187.071C58.7529 187.217 58.9038 187.334 59.0756 187.414C59.2475 187.495 59.4357 187.536 59.6261 187.535H129.041C129.231 187.535 129.418 187.493 129.59 187.413C129.761 187.333 129.912 187.217 130.032 187.073C130.151 186.929 130.236 186.761 130.281 186.581C130.326 186.401 130.329 186.213 130.29 186.031L129.212 181.032C129.168 180.828 129.071 180.639 128.933 180.48C128.794 180.322 128.616 180.2 128.417 180.126C128.273 180.071 128.119 180.042 127.964 180.042H60.6994C60.5443 180.042 60.3905 180.071 60.2461 180.126C60.0467 180.2 59.8694 180.322 59.7305 180.48C59.5916 180.639 59.4955 180.828 59.4508 181.032L58.3733 186.031C58.3349 186.213 58.3385 186.4 58.3836 186.58C58.4287 186.76 58.5143 186.928 58.6341 187.071Z" fill="#2F2E41"/>
<path d="M151.928 85.8791H42.754C42.6405 85.8767 42.5325 85.8309 42.4531 85.7516C42.3738 85.6724 42.3293 85.5659 42.3293 85.4551C42.3293 85.3442 42.3738 85.2377 42.4531 85.1585C42.5325 85.0792 42.6405 85.0335 42.754 85.031H151.928C152.041 85.0335 152.149 85.0792 152.229 85.1585C152.308 85.2377 152.353 85.3442 152.353 85.4551C152.353 85.5659 152.308 85.6724 152.229 85.7516C152.149 85.8309 152.041 85.8767 151.928 85.8791Z" fill="#3F3D56"/>
<path d="M50.1855 82.8658C51.5907 82.8658 52.7298 81.7283 52.7298 80.3252C52.7298 78.9221 51.5907 77.7847 50.1855 77.7847C48.7803 77.7847 47.6411 78.9221 47.6411 80.3252C47.6411 81.7283 48.7803 82.8658 50.1855 82.8658Z" fill="#3F3D56"/>
<path d="M58.975 82.8658C60.3802 82.8658 61.5194 81.7283 61.5194 80.3252C61.5194 78.9221 60.3802 77.7847 58.975 77.7847C57.5698 77.7847 56.4307 78.9221 56.4307 80.3252C56.4307 81.7283 57.5698 82.8658 58.975 82.8658Z" fill="#3F3D56"/>
<path d="M67.7646 82.8658C69.1698 82.8658 70.3089 81.7283 70.3089 80.3252C70.3089 78.9221 69.1698 77.7847 67.7646 77.7847C66.3594 77.7847 65.2202 78.9221 65.2202 80.3252C65.2202 81.7283 66.3594 82.8658 67.7646 82.8658Z" fill="#3F3D56"/>
<path d="M146.635 78.4131H140.392C140.269 78.4159 140.151 78.4657 140.065 78.552C139.979 78.6382 139.93 78.754 139.93 78.8746C139.93 78.9951 139.979 79.1109 140.065 79.1972C140.151 79.2834 140.269 79.3333 140.392 79.3361H146.635C146.759 79.3344 146.878 79.285 146.965 79.1986C147.052 79.1123 147.101 78.9959 147.101 78.8746C147.101 78.7533 147.052 78.6369 146.965 78.5505C146.878 78.4642 146.759 78.4148 146.635 78.4131Z" fill="#3F3D56"/>
<path d="M146.635 80.1462H140.392C140.269 80.1489 140.151 80.1987 140.065 80.285C139.978 80.3712 139.93 80.4871 139.93 80.6077C139.93 80.7284 139.978 80.8443 140.065 80.9305C140.151 81.0168 140.269 81.0666 140.392 81.0692H146.635C146.759 81.0678 146.878 81.0185 146.965 80.9321C147.053 80.8457 147.102 80.7292 147.102 80.6077C147.102 80.4863 147.053 80.3697 146.965 80.2834C146.878 80.197 146.759 80.1477 146.635 80.1462Z" fill="#3F3D56"/>
<path d="M146.635 81.8794H140.392C140.269 81.8822 140.151 81.9321 140.065 82.0183C139.979 82.1045 139.93 82.2203 139.93 82.3409C139.93 82.4615 139.979 82.5772 140.065 82.6635C140.151 82.7497 140.269 82.7996 140.392 82.8024H146.635C146.759 82.8007 146.878 82.7513 146.965 82.6649C147.052 82.5786 147.101 82.4622 147.101 82.3409C147.101 82.2196 147.052 82.1032 146.965 82.0168C146.878 81.9305 146.759 81.8811 146.635 81.8794Z" fill="#3F3D56"/>
<path d="M297.138 184.223C297.327 184.759 297.684 185.223 298.159 185.548C298.634 185.873 299.202 186.042 299.782 186.032L311.11 185.747C311.694 185.736 312.258 185.541 312.719 185.19C313.18 184.84 313.513 184.353 313.667 183.802L315.27 167.06C315.839 167.312 316.458 167.436 317.082 167.424C317.624 167.411 318.159 167.293 318.655 167.078C319.15 166.863 319.598 166.555 319.972 166.171C320.346 165.787 320.639 165.335 320.833 164.84C321.028 164.346 321.122 163.819 321.108 163.289C321.095 162.759 320.974 162.237 320.754 161.753C320.534 161.269 320.218 160.832 319.825 160.466C319.432 160.101 318.969 159.815 318.463 159.625C317.957 159.434 317.417 159.343 316.875 159.356C316.625 159.356 316.376 159.381 316.132 159.432C315.867 159.152 315.544 158.928 315.186 158.777C314.827 158.626 314.439 158.55 314.048 158.554L296.624 158.993C296.479 158.998 296.335 159.016 296.194 159.045C295.812 159.115 295.449 159.264 295.131 159.481C294.813 159.699 294.546 159.981 294.348 160.308C294.151 160.635 294.028 161 293.986 161.377C293.945 161.755 293.988 162.137 294.11 162.497L297.138 184.223ZM315.599 165.924L316.739 161.934C316.869 161.473 316.872 160.987 316.748 160.524C316.803 160.524 316.852 160.499 316.908 160.499C317.69 160.483 318.446 160.771 319.012 161.299C319.577 161.827 319.904 162.553 319.923 163.317C319.941 164.08 319.648 164.82 319.109 165.374C318.57 165.927 317.828 166.249 317.046 166.269C316.54 166.285 316.04 166.165 315.599 165.924Z" fill="#2F2E41"/>
<path d="M296.194 159.045C296.565 161.118 300.739 162.576 305.757 162.322C310.372 162.115 314.146 160.532 314.837 158.656C314.581 158.582 314.315 158.548 314.048 158.553L296.624 158.993C296.479 158.998 296.335 159.016 296.194 159.045Z" fill="#3F3D56"/>
<path d="M306.677 175.023C306.7 175.018 306.722 175.008 306.742 174.996L309.202 173.423C309.231 173.404 309.256 173.378 309.273 173.348C309.29 173.317 309.298 173.283 309.298 173.248C309.299 173.214 309.29 173.179 309.273 173.149C309.256 173.118 309.231 173.093 309.202 173.074L306.645 171.438C306.621 171.423 306.595 171.412 306.567 171.407C306.54 171.402 306.511 171.402 306.484 171.407C306.456 171.413 306.43 171.424 306.407 171.439C306.384 171.455 306.364 171.474 306.348 171.497C306.333 171.52 306.322 171.546 306.317 171.573C306.312 171.6 306.312 171.628 306.318 171.655C306.324 171.682 306.335 171.707 306.351 171.73C306.367 171.753 306.387 171.772 306.411 171.787L308.694 173.248L306.508 174.646C306.465 174.673 306.434 174.714 306.42 174.761C306.405 174.809 306.408 174.86 306.429 174.905C306.449 174.95 306.485 174.987 306.531 175.009C306.576 175.03 306.628 175.035 306.677 175.023Z" fill="#14CC5E"/>
<path d="M302.792 175.198C302.833 175.188 302.87 175.166 302.899 175.135C302.927 175.104 302.945 175.065 302.951 175.024C302.957 174.983 302.95 174.941 302.931 174.904C302.912 174.866 302.882 174.835 302.846 174.815L300.578 173.545L302.77 171.955C302.792 171.939 302.811 171.918 302.826 171.895C302.84 171.871 302.85 171.845 302.854 171.818C302.858 171.791 302.856 171.763 302.849 171.737C302.843 171.71 302.83 171.685 302.814 171.663C302.797 171.641 302.776 171.622 302.752 171.608C302.728 171.594 302.701 171.585 302.673 171.581C302.646 171.577 302.617 171.578 302.59 171.585C302.563 171.592 302.537 171.604 302.515 171.62L300.061 173.4C300.033 173.421 300.01 173.448 299.995 173.479C299.98 173.511 299.973 173.545 299.975 173.58C299.977 173.615 299.988 173.648 300.007 173.678C300.025 173.707 300.051 173.732 300.082 173.749L302.633 175.177C302.681 175.204 302.738 175.212 302.792 175.198Z" fill="#14CC5E"/>
<path d="M306.432 176.402C306.453 176.397 306.473 176.388 306.491 176.377C306.515 176.363 306.536 176.344 306.552 176.322C306.569 176.3 306.581 176.275 306.588 176.248C306.594 176.222 306.596 176.194 306.591 176.167C306.587 176.14 306.577 176.114 306.563 176.09L303.075 170.491C303.046 170.443 302.998 170.409 302.943 170.396C302.888 170.383 302.83 170.392 302.782 170.421C302.733 170.45 302.698 170.496 302.685 170.55C302.672 170.604 302.681 170.661 302.71 170.708L306.197 176.308C306.221 176.346 306.257 176.376 306.299 176.392C306.341 176.409 306.388 176.413 306.432 176.402Z" fill="#14CC5E"/>
<path d="M110.385 108.933H91.4895C90.7186 108.933 90.0938 109.543 90.0938 110.296V112.099C90.0938 112.852 90.7186 113.463 91.4895 113.463H110.385C111.156 113.463 111.781 112.852 111.781 112.099V110.296C111.781 109.543 111.156 108.933 110.385 108.933Z" fill="#14CC5E"/>
<path d="M121.399 117.992H80.4756C79.7047 117.992 79.0798 118.603 79.0798 119.355V121.159C79.0798 121.911 79.7047 122.522 80.4756 122.522H121.399C122.17 122.522 122.795 121.911 122.795 121.159V119.355C122.795 118.603 122.17 117.992 121.399 117.992Z" fill="#E6E6E6"/>
<path d="M121.399 127.052H80.4756C79.7047 127.052 79.0798 127.662 79.0798 128.415V130.218C79.0798 130.971 79.7047 131.581 80.4756 131.581H121.399C122.17 131.581 122.795 130.971 122.795 130.218V128.415C122.795 127.662 122.17 127.052 121.399 127.052Z" fill="#E6E6E6"/>
<path d="M124.868 157.387L124.961 157.673L124.966 157.683L127.756 165.968L130.966 175.516L137.004 193.458L137.063 196.245V196.255L137.512 218.676L136.268 221.716L137.668 226.699C137.668 226.699 137.024 219.166 133.57 223.492C131.614 225.95 129.327 228.466 127.449 230.824C130.185 231.906 132.966 232.884 135.79 233.759C136.4 233.95 137.014 234.131 137.629 234.312C137.76 234.35 137.892 234.388 138.024 234.426C147.386 237.13 157.064 238.65 166.822 238.948C167.33 238.962 167.827 238.971 168.31 238.981C168.481 238.986 168.647 238.99 168.813 238.99C169.359 238.995 169.9 239 170.447 239C171.549 239 172.647 238.984 173.739 238.952C181.826 238.73 189.866 237.668 197.723 235.784C197.67 232.616 197.523 228.914 197.314 224.959C197.216 223.02 195.026 220.919 194.894 218.89C194.802 217.365 196.767 215.931 196.665 214.383C196.002 204.849 195.172 208.509 194.558 201.758C194.494 201.095 194.436 200.462 194.382 199.857C193.987 195.521 193.714 192.81 193.714 192.81L196.338 176.654L200.46 151.289L200.143 150.779L199.787 150.608L178.046 140.098L176.866 137.144C176.522 136.293 175.925 135.562 175.152 135.045C174.38 134.527 173.466 134.248 172.53 134.242L158.208 134.185C157.465 134.182 156.732 134.352 156.069 134.681C155.407 135.009 154.834 135.488 154.399 136.076L150.521 141.322L124.868 157.387Z" fill="#3F3D56"/>
<path d="M140.307 189.466L137.063 196.245L134.848 200.876L131.039 220.358L129.132 222.335L127.498 215.335L110.395 219.045C109.834 216 110.245 219.148 109.898 215.808C109.996 215.712 110.098 215.617 110.201 215.522C110.474 215.274 110.703 215.041 110.698 214.817C110.503 203.297 111.089 183.691 115.976 171.814C116.742 169.874 117.751 168.036 118.981 166.34C119.078 166.211 119.171 166.082 119.264 165.954C121.517 162.871 122.942 159.836 124.961 157.678V157.673C124.974 157.663 124.985 157.652 124.995 157.64C125.003 157.636 125.009 157.631 125.015 157.626L138.887 150.441L139.482 166.773L139.907 178.512L140.307 189.466Z" fill="#3F3D56"/>
<path d="M190.328 191.391L194.38 199.859L195.794 202.808L199.603 222.288L201.504 224.26L203.142 217.262L203.911 217.108L217.79 214.3L221.835 226.849C222.747 225.365 223.106 223.619 222.852 221.907C222.598 220.194 221.746 218.62 220.441 217.45C220.165 217.206 219.935 216.968 219.941 216.743C220.171 203.193 219.323 178.452 211.66 168.269C209.226 165.037 207.766 161.818 205.641 159.57C205.635 159.563 205.635 159.557 205.628 159.557L200.458 151.288L200.142 150.781L199.787 150.607L190.328 191.391Z" fill="#3F3D56"/>
<path d="M165.783 130.204C176.305 130.204 184.835 121.872 184.835 111.595C184.835 101.317 176.305 92.9852 165.783 92.9852C155.26 92.9852 146.73 101.317 146.73 111.595C146.73 121.872 155.26 130.204 165.783 130.204Z" fill="#FFB6B6"/>
<path d="M191.535 98.596C191.387 98.4419 191.209 98.3185 191.011 98.2331C190.814 98.1477 190.6 98.1021 190.384 98.099L190.671 97.3222C190.764 97.0776 190.79 96.813 190.744 96.5556C190.698 96.2983 190.583 96.0574 190.411 95.8577C190.239 95.658 190.015 95.5066 189.763 95.419C189.512 95.3314 189.24 95.3108 188.978 95.3593L187.934 95.5556L188.033 94.8748C188.07 94.6213 188.04 94.3625 187.944 94.124C187.848 93.8855 187.691 93.6754 187.487 93.5144C187.283 93.3534 187.039 93.2471 186.78 93.2059C186.521 93.1647 186.256 93.1901 186.01 93.2794C185.786 93.3654 185.546 93.4014 185.306 93.3848C185.067 93.3682 184.834 93.2993 184.625 93.1834C184.415 93.071 184.233 92.9152 184.091 92.7269C183.949 92.5386 183.851 92.3224 183.804 92.0933L183.44 90.381L183.402 90.2891C181.632 87.4073 178.228 85.3108 174.063 84.5423C170.356 83.8532 166.555 84.204 162.89 84.534C161.436 84.6676 159.795 84.8179 158.426 85.6365C157.263 86.3382 156.28 87.7415 156.481 89.1573C152.868 88.0756 148.994 90.2348 147.074 92.9578C144.799 96.1987 144.427 100.258 144.367 103.432C144.205 110.942 145.791 117.085 149.071 121.696C149.31 122.03 149.37 122.728 149.844 122.961L149.746 122.807C150.276 123.066 150.815 123.483 150.614 123.93C150.037 125.217 153.872 128.061 156.575 129.001C161.505 130.717 168.06 130.571 172.669 129.953L172.832 128.888C174.495 128.666 175.667 128.245 175.996 127.585C176.577 127.1 177.073 126.666 177.505 126.265L177.51 126.261C177.518 126.252 177.535 126.24 177.544 126.232C179.626 124.281 180.109 123.17 180.327 121.479C180.537 119.821 180.165 118.138 179.784 116.622C187.797 117.833 176.629 108.285 184.094 106.439C184.18 106.414 184.267 106.393 184.355 106.377C184.573 106.327 184.791 106.277 185.001 106.218C186.011 105.95 186.978 105.547 187.874 105.019C189.961 103.779 190.649 102.133 191.727 100.279C191.882 100.015 191.948 99.7095 191.913 99.4068C191.878 99.1041 191.746 98.8201 191.535 98.596Z" fill="#2F2E41"/>
<path d="M233.169 192.716C233.165 193.447 233.156 194.47 233.122 195.736C233.118 195.911 233.113 196.091 233.109 196.275C233.054 198.601 232.998 200.551 232.908 202.719C232.904 202.869 232.9 203.015 232.891 203.166C232.771 206.19 232.583 209.71 232.258 215.286C231.655 225.585 230.604 216.702 229.547 220.314C229.496 220.494 229.44 220.707 229.389 220.957C229.229 221.867 228.959 222.754 228.585 223.601C228.025 223.927 227.448 224.24 226.879 224.553C225.259 225.435 223.612 226.282 221.953 227.088C221.021 227.54 220.085 227.982 219.144 228.408C218.994 228.475 218.849 228.542 218.704 228.604C213.887 230.781 208.922 232.631 203.845 234.142C202.853 234.435 201.865 234.719 200.865 234.982C199.821 235.266 198.778 235.533 197.722 235.784C189.865 237.668 181.825 238.73 173.738 238.954C172.648 238.987 171.549 239 170.446 239C169.899 239 169.36 238.995 168.812 238.991C168.646 238.991 168.479 238.987 168.312 238.983C167.829 238.97 167.329 238.962 166.824 238.95C157.066 238.652 147.387 237.132 138.026 234.426L137.628 234.314C137.013 234.13 136.401 233.95 135.79 233.758C132.967 232.885 130.187 231.908 127.447 230.826C125.356 230.004 123.29 229.121 121.247 228.178C121.229 228.174 121.211 228.165 121.196 228.153C120.768 227.961 120.336 227.761 119.909 227.556C119.853 227.527 119.793 227.498 119.734 227.468C118.139 226.708 116.561 225.912 115 225.08C113.687 222.135 111.84 221.571 110.694 218.982C110.361 218.213 110.12 217.408 109.976 216.585C109.976 216.576 109.972 216.568 109.972 216.555C110.091 218.109 109.463 213.799 109.967 216.539C109.963 216.489 109.959 216.434 109.955 216.372C109.942 216.221 109.925 216.038 109.899 215.808C108.432 201.821 108.526 185.825 107.889 172.644C107.847 171.792 107.802 170.977 107.757 170.197C107.744 169.938 107.727 169.683 107.71 169.433C107.74 169.358 107.774 169.278 107.812 169.203C107.821 169.181 107.831 169.16 107.842 169.14C107.855 169.114 107.869 169.089 107.885 169.065C107.894 169.053 107.906 169.036 107.915 169.023C107.921 169.009 107.928 168.995 107.936 168.982C107.975 168.923 108.018 168.861 108.065 168.802C108.086 168.777 108.103 168.756 108.124 168.735C108.139 168.714 108.156 168.694 108.176 168.677C108.189 168.657 108.205 168.638 108.223 168.622C108.24 168.606 108.257 168.585 108.278 168.564C108.288 168.551 108.299 168.54 108.313 168.531C108.346 168.493 108.384 168.458 108.424 168.426C108.576 168.289 108.739 168.163 108.911 168.05C108.971 168.013 109.035 167.975 109.095 167.933C109.526 167.682 109.98 167.469 110.451 167.299C110.613 167.24 110.776 167.186 110.951 167.127C111.015 167.111 111.075 167.09 111.139 167.069C111.233 167.04 111.327 167.01 111.425 166.989C111.913 166.847 112.439 166.726 113.008 166.614C113.076 166.601 113.149 166.589 113.221 166.572C113.324 166.551 113.431 166.534 113.538 166.518C113.683 166.492 113.833 166.467 113.982 166.442C115.252 166.246 116.693 166.1 118.284 166.004C118.434 165.996 118.583 165.987 118.733 165.979C118.908 165.97 119.084 165.962 119.263 165.954C119.413 165.945 119.567 165.941 119.721 165.937C119.87 165.929 120.024 165.924 120.183 165.92C120.614 165.908 121.059 165.895 121.512 165.887C122.804 165.862 124.163 165.87 125.592 165.899C126.254 165.916 126.93 165.933 127.623 165.962C127.67 165.962 127.712 165.966 127.755 165.966C128.358 165.987 128.965 166.012 129.59 166.046C130.026 166.066 130.466 166.087 130.906 166.112C131.321 166.138 131.74 166.163 132.164 166.192C132.493 166.209 132.822 166.234 133.156 166.254C133.438 166.275 133.72 166.296 134.002 166.313L134.387 166.338C134.597 166.355 134.806 166.367 135.02 166.388C135.49 166.426 135.961 166.463 136.44 166.501C136.914 166.543 137.397 166.584 137.881 166.626C138.364 166.668 138.851 166.714 139.339 166.76C139.39 166.764 139.437 166.768 139.484 166.772C139.929 166.818 140.373 166.86 140.822 166.906C140.925 166.914 141.032 166.923 141.134 166.935C141.563 166.977 141.999 167.026 142.431 167.071C142.563 167.085 142.695 167.099 142.828 167.113C143.167 167.149 143.5 167.18 143.841 167.219C144.29 167.269 144.748 167.315 145.192 167.374C145.539 167.411 145.885 167.449 146.231 167.491C146.774 167.553 147.326 167.62 147.878 167.691C148.087 167.716 148.297 167.741 148.506 167.77C150.08 167.963 151.67 168.176 153.287 168.397C155.737 168.735 158.225 169.103 160.731 169.5C163.241 169.896 165.765 170.315 168.304 170.757C168.945 170.869 169.586 170.982 170.232 171.099C170.523 171.153 170.813 171.208 171.104 171.262C171.6 171.35 172.096 171.442 172.592 171.533C173.088 171.625 173.584 171.717 174.08 171.813C174.67 171.926 175.265 172.039 175.855 172.152C179.742 172.903 183.607 173.705 187.378 174.545C187.998 174.682 188.618 174.824 189.234 174.962C190.466 175.242 191.686 175.526 192.894 175.814C193.228 175.889 193.557 175.969 193.886 176.048C194.707 176.249 195.528 176.449 196.336 176.654L196.478 176.691C197.072 176.833 197.653 176.98 198.235 177.13C199.607 177.481 200.957 177.836 202.284 178.195C203.165 178.433 204.036 178.674 204.897 178.917C206.184 179.281 207.445 179.648 208.672 180.02C208.976 180.112 209.28 180.204 209.579 180.291C210.477 180.563 211.362 180.839 212.221 181.114C212.906 181.331 213.573 181.553 214.231 181.774C214.89 181.995 215.535 182.217 216.168 182.438C216.574 182.58 216.976 182.73 217.378 182.872C217.955 183.081 218.524 183.29 219.08 183.499C219.251 183.562 219.418 183.628 219.584 183.691C219.691 183.737 219.794 183.775 219.897 183.816C220.098 183.896 220.303 183.971 220.5 184.05C220.701 184.125 220.897 184.205 221.094 184.288C221.286 184.363 221.483 184.443 221.671 184.522C221.864 184.597 222.052 184.677 222.24 184.76C222.398 184.823 222.552 184.89 222.702 184.957C223.005 185.086 223.309 185.215 223.604 185.349C223.749 185.416 223.895 185.479 224.04 185.545L224.374 185.696C224.421 185.721 224.468 185.742 224.515 185.763C224.621 185.813 224.733 185.867 224.84 185.917C225.088 186.03 225.331 186.151 225.571 186.264C225.891 186.422 226.204 186.581 226.503 186.736C226.807 186.894 227.102 187.053 227.384 187.208C227.431 187.233 227.474 187.258 227.521 187.283C227.585 187.316 227.649 187.354 227.713 187.387C227.931 187.508 228.141 187.634 228.35 187.755C228.761 188.001 229.15 188.243 229.513 188.486C229.594 188.54 229.671 188.594 229.753 188.644C230.022 188.832 230.279 189.016 230.518 189.204C230.518 189.208 230.518 189.208 230.522 189.208C230.604 189.267 230.68 189.329 230.757 189.388C230.822 189.446 230.89 189.496 230.954 189.555C231.176 189.743 231.382 189.922 231.57 190.106C231.633 190.163 231.693 190.223 231.749 190.286C231.774 190.306 231.797 190.328 231.818 190.352C231.903 190.436 231.98 190.519 232.053 190.603C232.064 190.615 232.074 190.627 232.083 190.641C232.186 190.758 232.28 190.875 232.369 190.991C232.412 191.05 232.459 191.108 232.498 191.167C232.549 191.238 232.6 191.313 232.643 191.384C232.682 191.443 232.716 191.505 232.75 191.564C232.841 191.714 232.918 191.872 232.981 192.036C233.029 192.146 233.068 192.261 233.096 192.378C233.129 192.489 233.153 192.602 233.169 192.716Z" fill="#2F2E41"/>
<path opacity="0.2" d="M233.169 192.716C233.165 193.447 233.156 194.47 233.122 195.736C233.118 195.911 233.109 196.091 233.105 196.275C233.062 198.05 232.998 200.242 232.908 202.719C232.904 202.869 232.9 203.015 232.891 203.166C232.771 206.189 232.583 209.71 232.258 215.286C231.655 225.585 230.603 216.702 229.547 220.314C226.614 218.552 223.399 216.706 219.961 214.81C219.341 214.467 218.715 214.123 218.084 213.778C211.208 210.032 203.528 206.106 195.511 202.218C195.195 202.063 194.874 201.909 194.558 201.758C176.193 192.892 156.147 184.267 139.907 178.512C136.773 177.401 133.78 176.399 130.966 175.518C125.04 173.668 119.917 172.373 115.975 171.813C111.87 171.229 109.035 171.437 107.889 172.644C107.846 171.792 107.802 170.977 107.757 170.197C107.74 169.938 107.722 169.683 107.705 169.433C107.732 169.364 107.766 169.298 107.799 169.232C107.804 169.222 107.807 169.212 107.812 169.203C107.82 169.181 107.83 169.16 107.842 169.14C107.855 169.114 107.869 169.089 107.885 169.065C107.899 169.036 107.916 169.007 107.936 168.982C107.975 168.923 108.017 168.86 108.064 168.802C108.099 168.758 108.136 168.716 108.176 168.677C108.189 168.657 108.205 168.638 108.223 168.622C108.24 168.606 108.257 168.585 108.278 168.564C108.287 168.551 108.299 168.539 108.313 168.531C108.346 168.493 108.384 168.458 108.424 168.426C108.576 168.289 108.739 168.163 108.911 168.05C108.971 168.013 109.035 167.975 109.095 167.933C109.526 167.682 109.98 167.469 110.45 167.298C110.613 167.24 110.775 167.186 110.951 167.127C111.015 167.111 111.075 167.09 111.139 167.069C111.233 167.04 111.327 167.01 111.425 166.989C111.913 166.847 112.439 166.726 113.007 166.614C113.178 166.58 113.358 166.547 113.538 166.517C113.683 166.492 113.833 166.467 113.982 166.442C115.252 166.246 116.693 166.1 118.284 166.004C118.434 165.995 118.583 165.987 118.733 165.979C118.908 165.97 119.084 165.962 119.263 165.954C119.413 165.945 119.567 165.941 119.721 165.937C119.87 165.929 120.024 165.924 120.182 165.92C120.614 165.908 121.059 165.895 121.512 165.887C122.804 165.866 124.163 165.874 125.591 165.904C126.254 165.916 126.93 165.937 127.623 165.966C127.665 165.966 127.712 165.97 127.755 165.97C128.358 165.987 128.969 166.016 129.589 166.046C130.026 166.066 130.466 166.087 130.906 166.112C131.321 166.137 131.74 166.162 132.164 166.192C132.493 166.208 132.822 166.233 133.155 166.254C133.438 166.275 133.72 166.296 134.002 166.313C134.34 166.338 134.678 166.363 135.02 166.388C135.49 166.426 135.961 166.463 136.439 166.501C136.914 166.543 137.397 166.584 137.88 166.626C138.364 166.668 138.851 166.714 139.338 166.76C139.39 166.764 139.437 166.768 139.484 166.772C139.929 166.818 140.373 166.86 140.822 166.906C143.311 167.152 145.872 167.44 148.506 167.77C150.08 167.967 151.673 168.177 153.286 168.401C155.737 168.739 158.225 169.107 160.731 169.499C163.241 169.896 165.765 170.315 168.303 170.757C168.945 170.869 169.586 170.982 170.232 171.099C171.019 171.241 171.805 171.386 172.592 171.533C173.088 171.625 173.584 171.717 174.08 171.813C174.67 171.926 175.265 172.039 175.855 172.152C179.742 172.903 183.607 173.705 187.378 174.545C187.998 174.682 188.618 174.824 189.234 174.962C190.465 175.242 191.686 175.526 192.894 175.814C193.228 175.894 193.557 175.973 193.886 176.052C194.711 176.253 195.528 176.453 196.336 176.654V176.658C196.383 176.666 196.43 176.679 196.477 176.691C197.067 176.837 197.653 176.984 198.235 177.134C199.607 177.485 200.957 177.838 202.284 178.195C203.165 178.437 204.037 178.675 204.897 178.917C206.184 179.285 207.445 179.652 208.672 180.02C208.976 180.112 209.279 180.204 209.579 180.291C210.477 180.567 211.358 180.841 212.221 181.114C212.905 181.331 213.573 181.553 214.231 181.774C214.889 181.995 215.535 182.217 216.168 182.438C216.578 182.58 216.98 182.726 217.378 182.868C217.96 183.077 218.524 183.286 219.08 183.499C219.251 183.562 219.418 183.628 219.584 183.691C219.897 183.808 220.2 183.929 220.499 184.05C220.7 184.125 220.897 184.205 221.094 184.288C221.286 184.363 221.483 184.443 221.671 184.522C221.863 184.597 222.052 184.677 222.24 184.76C222.398 184.823 222.552 184.89 222.702 184.956C223.005 185.086 223.309 185.215 223.604 185.349C223.749 185.416 223.895 185.479 224.04 185.545L224.373 185.696C224.42 185.721 224.468 185.742 224.515 185.763C224.878 185.93 225.229 186.097 225.571 186.264C225.891 186.422 226.204 186.581 226.503 186.736C226.858 186.919 227.196 187.099 227.521 187.283C227.585 187.316 227.649 187.354 227.713 187.387C227.931 187.508 228.141 187.634 228.35 187.755C228.761 188.001 229.15 188.243 229.513 188.486C229.872 188.728 230.206 188.966 230.518 189.204C230.518 189.208 230.518 189.208 230.522 189.208C230.672 189.325 230.817 189.442 230.954 189.555C231.176 189.743 231.382 189.922 231.57 190.106C231.633 190.163 231.693 190.223 231.749 190.286C231.774 190.306 231.797 190.328 231.818 190.352C231.908 190.448 231.997 190.545 232.083 190.641C232.186 190.758 232.28 190.874 232.369 190.991C232.412 191.05 232.459 191.108 232.498 191.167C232.549 191.238 232.6 191.313 232.643 191.384C232.682 191.442 232.716 191.505 232.75 191.564C232.841 191.714 232.918 191.872 232.981 192.036C233.028 192.147 233.066 192.261 233.096 192.378C233.129 192.489 233.153 192.602 233.169 192.716Z" fill="black"/>
</svg>
