<svg width="64" height="65" viewBox="0 0 64 65" fill="none" xmlns="http://www.w3.org/2000/svg">
<path fill-rule="evenodd" clip-rule="evenodd" d="M0 8C0 4.22876 0 2.34315 1.17157 1.17157C2.34315 0 4.22876 0 8 0H56C59.7712 0 61.6569 0 62.8284 1.17157C64 2.34315 64 4.22876 64 8V57C64 60.7712 64 62.6569 62.8284 63.8284C61.6569 65 59.7712 65 56 65H8C4.22876 65 2.34315 65 1.17157 63.8284C0 62.6569 0 60.7712 0 57V8ZM19.6971 48.7408C23.2248 45.9916 27.5493 44.5 32 44.5C36.4507 44.5 40.7752 45.9916 44.3029 48.7408C47.8304 51.4898 50.3635 55.3419 51.5127 59.6979C51.6536 60.2319 51.3349 60.7791 50.8009 60.9199C50.2669 61.0608 49.7197 60.7421 49.5789 60.2081C48.5403 56.2714 46.2524 52.7957 43.0735 50.3184C39.8949 47.8412 36.0025 46.5 32 46.5C27.9975 46.5 24.1051 47.8412 20.9265 50.3184C17.7476 52.7957 15.4598 56.2714 14.4211 60.2081C14.2803 60.7421 13.7331 61.0608 13.1991 60.9199C12.6651 60.779 12.3464 60.2319 12.4873 59.6979C13.6365 55.3419 16.1696 51.4898 19.6971 48.7408ZM23.4 22.75C23.4 17.9028 27.2649 14 32 14C36.7351 14 40.6 17.9028 40.6 22.75C40.6 27.5972 36.7351 31.5 32 31.5C27.2649 31.5 23.4 27.5972 23.4 22.75ZM32 12C26.1312 12 21.4 16.8276 21.4 22.75C21.4 28.6724 26.1312 33.5 32 33.5C37.8688 33.5 42.6 28.6724 42.6 22.75C42.6 16.8276 37.8688 12 32 12Z" fill="#14CC5E"/>
<rect x="0.5" y="0.5" width="63" height="64" rx="3.5" stroke="#14CC5E"/>
</svg>
