<svg width="195" height="165" viewBox="0 0 195 165" fill="none" xmlns="http://www.w3.org/2000/svg">
<path d="M18.2803 65.0111C16.7628 65.0111 15.541 66.0106 15.541 67.2519V99.884C15.541 101.125 16.7628 102.125 18.2803 102.125C19.7978 102.125 21.0193 101.125 21.0193 99.884V67.2519C21.0193 66.0106 19.7978 65.0111 18.2803 65.0111Z" fill="#14CC5E"/>
<path d="M18.1587 104.746C22.2361 104.746 25.5415 101.755 25.5415 98.0662C25.5415 94.3769 22.2361 91.3861 18.1587 91.3861C14.0813 91.3861 10.7759 94.3769 10.7759 98.0662C10.7759 101.755 14.0813 104.746 18.1587 104.746Z" fill="#14CC5E"/>
<path d="M10.3657 117.331L18.1597 96.6051L25.9537 117.331H10.3657Z" fill="#14CC5E"/>
<path d="M153.813 94.9067L191.63 69.9952C196.963 66.992 195.525 63.2355 190.402 59.0692L113.786 9.02762C104.224 2.2011 102.949 4.04934 104.454 8.8091L102.981 95.5623L153.813 94.9067Z" fill="#14CC5E"/>
<path d="M41.1871 94.7406L3.3701 69.8291C-1.96346 66.8259 -0.524602 63.0694 4.59794 58.903L81.2142 8.86152C90.7757 2.035 92.0512 3.88324 90.5456 8.64299L92.019 95.3962L41.1871 94.7406Z" fill="#14CC5E"/>
<path d="M80.8794 9.68306C84.3443 7.26265 83.6738 6.52116 91.9298 2.03479C96.8512 -1.31558 99.7141 0.218889 102.735 1.37922L110.593 6.84227L109.119 97.7474H84.0717L80.8794 9.68306Z" fill="#14CC5E"/>
<path d="M153.812 94.688L151.357 127.029C150.698 133.049 147.781 134.793 143.744 138.174L102.244 163.304L97.3325 163.741L98.0692 95.1251L153.812 94.688Z" fill="#14CC5E"/>
<path d="M41.0977 94.688L43.5533 127.029C44.2122 133.049 47.1292 134.793 51.1658 138.174L92.6663 163.304L97.5776 163.741L96.8409 95.1251L41.0977 94.688Z" fill="#14CC5E"/>
<path d="M92.2983 163.085C96.244 165.726 99.5228 165.201 102.489 163.195L100.893 95.7806L92.7895 95.8899L92.2983 163.085Z" fill="#14CC5E"/>
<path d="M40.9487 93.0748L41.4696 97.4014L152.947 97.8649L154.51 90.6026L40.9487 93.0748Z" fill="#14CC5E"/>
<mask id="mask0_2_1156" style="mask-type:luminance" maskUnits="userSpaceOnUse" x="15" y="23" width="161" height="119">
<path d="M164.902 23.4519C166.836 24.9908 166.113 27.2941 163.626 30.1049L149.409 53.3297C149.533 53.7095 147.362 57.6712 144.996 58.0194C144.663 57.9752 144.323 57.9454 143.977 57.9257C143.921 57.9061 143.866 57.8883 143.81 57.8635L143.919 57.9205C143.806 57.9145 143.7 57.8929 143.585 57.8897C136.652 57.6925 130.856 63.205 131.425 69.3402C131.548 70.6668 131.93 71.9456 132.578 73.1468C132.902 73.7485 133.73 74.5205 133.648 75.2197C133.501 76.4801 131.24 78.1528 130.392 79.1396C127.831 82.1203 125.096 84.9835 122.516 87.9519C121.689 88.9029 120.354 91.0614 119.113 91.5418C118.107 91.9313 115.862 90.8668 114.708 90.8063C112.982 90.7159 110.698 91.7383 109.156 91.4637C108.354 91.3209 107.672 90.2005 107.224 89.6569C105.853 87.9935 102.892 85.7144 102.309 83.7186C102.126 83.0935 103.141 82.1628 103.462 81.6294C104.238 80.3406 104.646 78.8376 104.791 77.3831C105.443 70.8344 98.473 65.4691 91.3522 66.2801C85.1625 66.9852 80.807 71.8367 81.0053 77.31C81.0624 78.8848 83.1746 82.0465 82.0658 83.1648C78.7615 86.4974 75.0226 89.5568 71.5237 92.7291C70.3226 93.818 68.6259 96.1024 67.0158 96.6454C65.9822 96.994 63.3247 95.5982 62.1183 95.4422C58.3525 94.9555 54.5029 96.262 51.896 98.6914C48.4907 101.865 47.9873 106.551 49.8032 110.311C50.1433 112.034 48.5501 113.666 45.5975 115.232L22.9754 132.384C22.9322 132.844 18.011 136.861 15.9224 134.832L22.3095 141.941C21.9361 139.58 23.1901 137.661 25.9482 136.151L49.1172 118.369C51.7585 116.135 53.8159 115.455 55.568 115.588C56.0638 115.779 56.5819 115.943 57.1266 116.071C57.3361 116.12 57.5453 116.147 57.7547 116.186C57.7717 116.194 57.7891 116.201 57.806 116.209L57.7853 116.192C65.0368 117.544 72.1362 113.149 72.4914 106.307C72.5627 104.932 72.3118 103.501 71.7421 102.224C71.5047 101.693 70.7103 100.7 70.9208 100.121C71.3072 99.0571 73.4027 97.7813 74.2863 96.9803L82.757 89.3006C83.6968 88.4486 85.2873 86.3223 86.6104 86.0346C87.7493 85.7869 90.0157 87.1558 91.3027 87.2931C93.3531 87.512 95.7635 86.4194 97.6083 86.7264C98.4639 86.8687 99.0727 87.9535 99.5441 88.5178C100.664 89.8582 101.807 91.1863 102.94 92.5176C103.425 93.0883 104.28 93.7577 104.368 94.5087C104.477 95.4363 103.028 96.9185 102.662 97.8308C101.836 99.8872 101.733 102.224 102.4 104.322C104.549 111.077 113.828 114.039 120.396 110.277C124.356 108.009 126.408 103.576 125.595 99.4794C125.274 97.8615 122.83 95.2027 123.958 93.8685C126.924 90.3599 130.168 87.0287 133.211 83.5723C134.525 82.0798 136.106 79.3941 137.943 78.4247C138.945 77.8959 141.509 79.0271 142.729 79.0637C146.626 79.1786 150.504 77.7043 152.842 74.8593C156.358 70.5817 155.593 65.1205 152.186 61.5645C151.486 59.7516 152.015 57.8616 153.702 55.8992L168.175 31.9114C170.458 27.6462 172.912 26.8536 175.417 27.1252L164.902 23.4519ZM142.937 62.5277C143.2 62.5185 143.471 62.5208 143.751 62.5351C152.048 62.9617 151.67 74.7562 143.335 74.4234C134.715 74.0793 134.779 62.8128 142.937 62.5277ZM92.4707 70.8327C92.7309 70.8233 92.9993 70.8254 93.276 70.8396C101.665 71.2686 101.348 83.0453 92.8638 82.7062C84.2979 82.3636 84.4073 71.1235 92.4707 70.8327ZM114.066 95.4394C114.326 95.4419 114.593 95.4561 114.867 95.4828C123.313 96.3074 121.546 108.011 113.111 107.31C104.638 106.606 106.002 95.3632 114.066 95.4394ZM60.3564 100.013C60.8422 100.007 61.3528 100.047 61.8872 100.138C70.3298 101.577 67.814 113.246 59.3884 111.821C51.3857 110.468 53.07 100.102 60.3564 100.013Z" fill="white"/>
</mask>
<g mask="url(#mask0_2_1156)">
<path d="M153.274 94.41L191.091 69.4985C196.425 66.4953 194.986 62.7387 189.863 58.5724L113.247 8.5309C103.685 1.70438 102.41 3.55263 103.916 8.31238L102.442 95.0656L153.274 94.41Z" fill="white"/>
<path d="M40.648 94.2439L2.83104 69.3324C-2.50252 66.3292 -1.06366 62.5726 4.05887 58.4063L80.6751 8.3648C90.2366 1.53828 91.5121 3.38652 90.0066 8.14627L91.4799 94.8995L40.648 94.2439Z" fill="white"/>
<path d="M80.3411 9.18649C83.8059 6.76608 83.1354 6.02459 91.3915 1.53822C96.3129 -1.81214 99.1758 -0.277678 102.196 0.882654L110.054 6.34571L108.581 97.2508H83.5334L80.3411 9.18649Z" fill="white"/>
<path d="M153.273 94.1915L150.818 126.533C150.159 132.552 147.242 134.296 143.205 137.677L101.705 162.807L96.7935 163.244L97.5302 94.6286L153.273 94.1915Z" fill="white"/>
<path d="M40.5591 94.1915L43.0147 126.533C43.6736 132.552 46.5906 134.296 50.6272 137.677L92.1277 162.807L97.039 163.244L96.3023 94.6286L40.5591 94.1915Z" fill="white"/>
<path d="M91.76 162.589C95.7057 165.23 98.9845 164.705 101.951 162.698L100.355 95.2842L92.2511 95.3935L91.76 162.589Z" fill="white"/>
<path d="M40.4097 92.5782L40.9306 96.9048L152.408 97.3683L153.971 90.1059L40.4097 92.5782Z" fill="white"/>
</g>
</svg>
