<svg width="56" height="51" viewBox="0 0 56 51" fill="none" xmlns="http://www.w3.org/2000/svg">
<path d="M5.173 19.7166C4.74499 19.7164 4.40023 20.0193 4.40003 20.3957L4.39471 30.291C4.39451 30.6674 4.73894 30.9706 5.16695 30.9709C5.59496 30.9711 5.93966 30.6683 5.93986 30.2918L5.94518 20.3965C5.94538 20.0201 5.60101 19.7168 5.173 19.7166Z" fill="#14CC5E"/>
<path d="M5.13192 31.7659C6.28196 31.7666 7.21474 30.8601 7.21534 29.7414C7.21594 28.6227 6.28414 27.7152 5.13409 27.7146C3.98405 27.714 3.05127 28.6204 3.05067 29.7392C3.05007 30.8579 3.98188 31.7653 5.13192 31.7659Z" fill="#14CC5E"/>
<path d="M2.93217 35.5808L5.13386 29.297L7.3288 35.5832L2.93217 35.5808Z" fill="#14CC5E"/>
<path d="M43.3948 28.8027L54.0652 21.2543C55.57 20.3444 55.1648 19.2051 53.7207 17.9409L32.1191 2.75474C29.4233 0.683221 29.0633 1.24349 29.4871 2.68706L29.0574 28.9938L43.3948 28.8027Z" fill="#14CC5E"/>
<path d="M11.6285 28.7352L0.966248 21.1753C-0.537605 20.2638 -0.13116 19.1249 1.31434 17.8623L22.9322 2.69937C25.6302 0.630751 25.9897 1.1914 25.5642 2.63452L25.9657 28.9417L11.6285 28.7352Z" fill="#14CC5E"/>
<path d="M22.8383 2.94849C23.8159 2.21505 23.6269 1.9901 25.9563 0.630909C27.3449 -0.384306 28.1522 0.0814373 29.0039 0.433753L31.2194 2.09155L30.789 29.6573L23.7243 29.6535L22.8383 2.94849Z" fill="#14CC5E"/>
<path d="M43.3951 28.7365L42.6972 38.5432C42.5104 40.3684 41.6874 40.8968 40.5483 41.9216L28.8389 49.5357L27.4536 49.6675L27.6726 28.8605L43.3951 28.7365Z" fill="#14CC5E"/>
<path d="M11.6035 28.7194L12.2909 38.5269C12.4757 40.3523 13.2982 40.8815 14.4362 41.9075L26.1374 49.5342L27.5225 49.6675L27.3259 28.8603L11.6035 28.7194Z" fill="#14CC5E"/>
<path d="M26.034 49.4679C27.1464 50.2693 28.0713 50.1107 28.9083 49.5026L28.4691 29.0598L26.1834 29.0917L26.034 49.4679Z" fill="#14CC5E"/>
<path d="M11.5621 28.2302L11.7083 29.5422L43.1506 29.6997L43.5926 27.4977L11.5621 28.2302Z" fill="#14CC5E"/>
<mask id="mask0_63_1692" style="mask-type:luminance" maskUnits="userSpaceOnUse" x="4" y="7" width="46" height="37">
<path d="M46.5347 7.13659C47.0798 7.60353 46.8754 8.30188 46.1737 9.15385L42.16 16.1943C42.195 16.3095 41.5819 17.5105 40.9146 17.6158C40.8206 17.6023 40.7245 17.5932 40.6272 17.5872C40.6114 17.5813 40.5956 17.5759 40.5799 17.5683L40.6107 17.5856C40.5788 17.5838 40.5489 17.5772 40.5167 17.5762C38.5612 17.5154 36.9254 19.1861 37.0848 21.0466C37.1193 21.4489 37.2269 21.8368 37.4094 22.2011C37.5009 22.3836 37.7343 22.6178 37.711 22.8299C37.6693 23.212 37.0312 23.7189 36.7919 24.018C36.0691 24.9215 35.2973 25.7893 34.5691 26.6891C34.3358 26.9773 33.9587 27.6317 33.6088 27.7772C33.325 27.8951 32.6919 27.572 32.3663 27.5535C31.8795 27.5258 31.2352 27.8355 30.8003 27.752C30.5741 27.7086 30.3818 27.3687 30.2556 27.2038C29.8693 26.6992 29.0343 26.0076 28.8702 25.4023C28.8188 25.2127 29.1054 24.9307 29.196 24.769C29.415 24.3783 29.5304 23.9226 29.5715 23.4815C29.7564 21.4958 27.7914 19.8678 25.7828 20.1126C24.0369 20.3255 22.8076 21.796 22.8626 23.4558C22.8785 23.9333 23.4737 24.8924 23.1608 25.2313C22.2283 26.2414 21.1732 27.1685 20.1858 28.13C19.8469 28.46 19.3679 29.1525 18.9137 29.3169C18.6221 29.4224 17.8728 28.9988 17.5326 28.9513C16.4705 28.8031 15.3845 29.1987 14.6488 29.935C13.6878 30.8968 13.5451 32.3177 14.0566 33.4581C14.1523 33.9808 13.7027 34.4753 12.8696 34.9498L6.48621 40.1475C6.47397 40.2869 5.08528 41.5045 4.4965 40.8888L6.29685 43.0454C6.19192 42.3295 6.54593 41.7479 7.32408 41.2903L13.8618 35.9015C14.6072 35.2246 15.1876 35.0186 15.6818 35.0592C15.8216 35.1173 15.9677 35.1671 16.1213 35.206C16.1804 35.2209 16.2394 35.229 16.2984 35.241C16.3032 35.2434 16.3081 35.2454 16.3129 35.2478L16.3071 35.2428C18.3521 35.6537 20.3553 34.3221 20.4566 32.2474C20.4769 31.8304 20.4064 31.3966 20.2459 31.0094C20.179 30.848 19.9551 30.5471 20.0146 30.3714C20.1237 30.0488 20.715 29.6623 20.9643 29.4195L23.3548 27.092C23.62 26.8338 24.0689 26.1893 24.4421 26.1022C24.7634 26.0273 25.4024 26.4427 25.7654 26.4846C26.3437 26.5513 27.0237 26.2203 27.544 26.3137C27.7853 26.357 27.9568 26.686 28.0897 26.8572C28.4053 27.2638 28.7275 27.6667 29.0469 28.0706C29.1837 28.2437 29.4247 28.4469 29.4494 28.6746C29.4799 28.9559 29.0709 29.4052 28.9675 29.6817C28.7343 30.3052 28.7049 31.0138 28.8927 31.6499C29.4977 33.6989 32.1143 34.5984 33.9676 33.4587C35.0848 32.7716 35.6642 31.4275 35.4356 30.1851C35.3453 29.6945 34.6564 28.8879 34.9748 28.4835C35.812 27.42 36.7276 26.4103 37.5865 25.3626C37.9573 24.9102 38.4037 24.0961 38.9218 23.8024C39.2046 23.6422 39.9274 23.9856 40.2715 23.9969C41.3706 24.0323 42.4647 23.5859 43.1248 22.7235C44.1171 21.4269 43.9022 19.7707 42.9418 18.6919C42.7447 18.142 42.8944 17.569 43.3702 16.9742L47.4563 9.70234C48.101 8.40931 48.7932 8.16933 49.4999 8.25205L46.5347 7.13659ZM40.3329 18.9826C40.4071 18.9798 40.4837 18.9805 40.5627 18.9849C42.9027 19.1155 42.7942 22.6921 40.4432 22.5899C38.0122 22.4842 38.032 19.0678 40.3329 18.9826ZM26.0975 21.4933C26.1709 21.4905 26.2466 21.4912 26.3247 21.4955C28.6907 21.6269 28.5993 25.198 26.2065 25.0939C23.7905 24.9887 23.8232 21.5803 26.0975 21.4933ZM32.1845 28.9583C32.2579 28.9591 32.3332 28.9634 32.4105 28.9716C34.7925 29.2229 34.2922 32.7716 31.9131 32.5577C29.5236 32.3429 29.9101 28.934 32.1845 28.9583ZM17.0349 30.337C17.1719 30.3353 17.3159 30.3474 17.4666 30.3751C19.8476 30.8128 19.1362 34.3508 16.7599 33.9176C14.503 33.5061 14.9797 30.363 17.0349 30.337Z" fill="white"/>
</mask>
<g mask="url(#mask0_63_1692)">
<path d="M43.2424 28.6521L53.9128 21.1037C55.4177 20.1938 55.0125 19.0544 53.5683 17.7903L31.9667 2.6041C29.271 0.532587 28.9109 1.09285 29.3348 2.53643L28.9051 28.8432L43.2424 28.6521Z" fill="white"/>
<path d="M11.4762 28.5846L0.813904 21.0247C-0.689949 20.1132 -0.283504 18.9743 1.162 17.7117L22.7799 2.54873C25.4779 0.480116 25.8373 1.04077 25.4119 2.48388L25.8133 28.7911L11.4762 28.5846Z" fill="white"/>
<path d="M22.6859 2.79785C23.6636 2.06442 23.4746 1.83947 25.804 0.480275C27.1926 -0.534941 27.9998 -0.0691975 28.8516 0.283118L31.0671 1.94092L30.6367 29.5067L23.572 29.5029L22.6859 2.79785Z" fill="white"/>
<path d="M43.2428 28.5858L42.5449 38.3926C42.3581 40.2178 41.535 40.7462 40.3959 41.7709L28.6866 49.385L27.3012 49.5168L27.5202 28.7099L43.2428 28.5858Z" fill="white"/>
<path d="M11.4512 28.5687L12.1385 38.3762C12.3234 40.2016 13.1458 40.7309 14.2838 41.7569L25.985 49.3836L27.3702 49.5168L27.1736 28.7097L11.4512 28.5687Z" fill="white"/>
<path d="M25.8816 49.3173C26.9941 50.1186 27.9189 49.96 28.756 49.352L28.3167 28.9091L26.0311 28.941L25.8816 49.3173Z" fill="white"/>
<path d="M11.4098 28.0795L11.556 29.3916L42.9983 29.549L43.4402 27.347L11.4098 28.0795Z" fill="white"/>
</g>
</svg>
