<svg width="195" height="165" viewBox="0 0 195 165" fill="none" xmlns="http://www.w3.org/2000/svg">
<path d="M18.2803 65.056C16.7628 65.056 15.541 66.0561 15.541 67.2983V99.9529C15.541 101.195 16.7628 102.195 18.2803 102.195C19.7978 102.195 21.0193 101.195 21.0193 99.9529V67.2983C21.0193 66.0561 19.7978 65.056 18.2803 65.056Z" fill="white"/>
<path d="M18.1584 104.818C22.2359 104.818 25.5413 101.826 25.5413 98.1338C25.5413 94.4419 22.2359 91.4491 18.1584 91.4491C14.081 91.4491 10.7756 94.4419 10.7756 98.1338C10.7756 101.826 14.081 104.818 18.1584 104.818Z" fill="white"/>
<path d="M10.3657 117.412L18.1597 96.6718L25.9537 117.412H10.3657Z" fill="white"/>
<path d="M153.813 94.9722L191.63 70.0435C196.963 67.0382 195.524 63.2791 190.402 59.1099L113.786 9.03387C104.224 2.20264 102.949 4.05216 104.454 8.8152L102.981 95.6282L153.813 94.9722Z" fill="white"/>
<path d="M41.1871 94.806L3.3701 69.8773C-1.96346 66.872 -0.524602 63.1128 4.59794 58.9436L81.2142 8.86761C90.7757 2.03638 92.0512 3.88589 90.5456 8.64893L92.019 95.462L41.1871 94.806Z" fill="white"/>
<path d="M80.8796 9.68974C84.3445 7.26766 83.674 6.52566 91.9301 2.03619C96.8515 -1.31648 99.7143 0.21904 102.735 1.38017L110.593 6.84699L109.12 97.8148H84.072L80.8796 9.68974Z" fill="white"/>
<path d="M153.812 94.7533L151.357 127.117C150.698 133.14 147.781 134.885 143.744 138.269L102.244 163.417L97.3325 163.854L98.0692 95.1906L153.812 94.7533Z" fill="white"/>
<path d="M41.0979 94.7533L43.5535 127.117C44.2124 133.14 47.1294 134.885 51.1661 138.269L92.6665 163.417L97.5778 163.854L96.8411 95.1906L41.0979 94.7533Z" fill="white"/>
<path d="M92.2986 163.198C96.2443 165.84 99.5231 165.315 102.49 163.307L100.893 95.8467L92.7897 95.956L92.2986 163.198Z" fill="white"/>
<path d="M40.9487 93.139L41.4696 97.4685L152.947 97.9324L154.51 90.665L40.9487 93.139Z" fill="white"/>
<mask id="mask0_257_1196" style="mask-type:luminance" maskUnits="userSpaceOnUse" x="15" y="23" width="161" height="120">
<path d="M164.902 23.4681C166.836 25.008 166.113 27.313 163.627 30.1257L149.41 53.3665C149.534 53.7465 147.362 57.711 144.997 58.0595C144.663 58.0152 144.323 57.9854 143.978 57.9657C143.922 57.9461 143.866 57.9282 143.81 57.9035L143.919 57.9604C143.806 57.9544 143.7 57.9329 143.586 57.9296C136.653 57.7323 130.856 63.2486 131.425 69.3881C131.548 70.7156 131.93 71.9952 132.578 73.1973C132.903 73.7994 133.731 74.5719 133.649 75.2717C133.501 76.5329 131.24 78.2068 130.392 79.1942C127.831 82.177 125.096 85.0422 122.516 88.0126C121.69 88.9642 120.354 91.1243 119.114 91.605C118.108 91.9948 115.862 90.9295 114.708 90.8689C112.982 90.7785 110.698 91.8016 109.156 91.5268C108.354 91.384 107.672 90.2628 107.224 89.7188C105.853 88.0542 102.892 85.7736 102.309 83.7763C102.126 83.1508 103.142 82.2195 103.463 81.6857C104.238 80.3961 104.647 78.892 104.791 77.4366C105.443 70.8833 98.4733 65.5143 91.3524 66.3259C85.1627 67.0315 80.8072 71.8862 81.0056 77.3634C81.0626 78.9392 83.1749 82.1031 82.066 83.2222C78.7618 86.557 75.0229 89.6186 71.5239 92.7931C70.3228 93.8828 68.6261 96.1688 67.016 96.7121C65.9824 97.0609 63.3249 95.6641 62.1185 95.508C58.3528 95.0211 54.5031 96.3285 51.8962 98.7595C48.4909 101.935 47.9875 106.624 49.8034 110.387C50.1436 112.112 48.5504 113.744 45.5977 115.312L22.9756 132.475C22.9325 132.935 18.0113 136.956 15.9226 134.925L22.3098 142.039C21.9364 139.676 23.1904 137.756 25.9484 136.245L49.1175 118.45C51.7587 116.215 53.8162 115.534 55.5683 115.667C56.064 115.859 56.5821 116.023 57.1268 116.151C57.3364 116.2 57.5455 116.227 57.755 116.266C57.7719 116.274 57.7894 116.281 57.8063 116.289L57.7856 116.272C65.037 117.625 72.1365 113.227 72.4917 106.38C72.563 105.004 72.3121 103.573 71.7424 102.295C71.505 101.763 70.7105 100.77 70.9211 100.19C71.3075 99.1254 73.4029 97.8488 74.2866 97.0472L82.7573 89.3622C83.697 88.5096 85.2876 86.3818 86.6107 86.0939C87.7495 85.8461 90.0159 87.2159 91.303 87.3533C93.3533 87.5724 95.7637 86.4791 97.6086 86.7862C98.4642 86.9287 99.073 88.0142 99.5444 88.5789C100.664 89.9202 101.807 91.2492 102.94 92.5815C103.426 93.1525 104.28 93.8224 104.368 94.5739C104.477 95.5021 103.028 96.9854 102.662 97.8983C101.836 99.9561 101.733 102.295 102.4 104.394C104.549 111.154 113.828 114.118 120.397 110.353C124.356 108.084 126.408 103.647 125.595 99.5481C125.274 97.9291 122.83 95.2684 123.958 93.9333C126.924 90.4223 130.169 87.0888 133.212 83.63C134.526 82.1364 136.107 79.4489 137.943 78.4788C138.946 77.9497 141.509 79.0816 142.729 79.1183C146.626 79.2332 150.504 77.7579 152.842 74.9109C156.358 70.6304 155.593 65.1654 152.186 61.607C151.486 59.7929 152.016 57.9016 153.702 55.9378L168.175 31.9335C170.458 27.6653 172.912 26.8722 175.418 27.1439L164.902 23.4681ZM142.937 62.5709C143.2 62.5617 143.472 62.5639 143.752 62.5783C152.048 63.0051 151.67 74.8078 143.335 74.4748C134.716 74.1305 134.779 62.8561 142.937 62.5709ZM92.471 70.8816C92.7311 70.8722 92.9996 70.8743 93.2762 70.8885C101.665 71.3178 101.348 83.1026 92.864 82.7632C84.2982 82.4204 84.4075 71.1726 92.471 70.8816ZM114.066 95.5053C114.326 95.5077 114.594 95.522 114.868 95.5487C123.313 96.3739 121.546 108.085 113.111 107.384C104.639 106.679 106.003 95.429 114.066 95.5053ZM60.3567 100.082C60.8424 100.076 61.3531 100.116 61.8874 100.207C70.33 101.647 67.8143 113.324 59.3886 111.898C51.3859 110.544 53.0703 100.171 60.3567 100.082Z" fill="white"/>
</mask>
<g mask="url(#mask0_257_1196)">
<path d="M153.274 94.4752L191.091 69.5465C196.425 66.5412 194.986 62.782 189.863 58.6128L113.247 8.5368C103.686 1.70557 102.41 3.55509 103.916 8.31813L102.442 95.1312L153.274 94.4752Z" fill="#14CC5E"/>
<path d="M40.648 94.3089L2.83104 69.3802C-2.50252 66.3749 -1.06366 62.6158 4.05887 58.4466L80.6751 8.37054C90.2366 1.53931 91.5121 3.38882 90.0066 8.15186L91.48 94.9649L40.648 94.3089Z" fill="#14CC5E"/>
<path d="M80.3411 9.19279C83.8059 6.77071 83.1354 6.02871 91.3915 1.53924C96.3129 -1.81343 99.1758 -0.277908 102.196 0.883224L110.054 6.35004L108.581 97.3179H83.5334L80.3411 9.19279Z" fill="#14CC5E"/>
<path d="M153.273 94.2565L150.817 126.62C150.159 132.644 147.242 134.389 143.205 137.772L101.705 162.92L96.7932 163.357L97.5299 94.6938L153.273 94.2565Z" fill="#14CC5E"/>
<path d="M40.5591 94.2565L43.0147 126.62C43.6736 132.644 46.5906 134.389 50.6272 137.772L92.1277 162.92L97.039 163.357L96.3023 94.6938L40.5591 94.2565Z" fill="#14CC5E"/>
<path d="M91.7603 162.701C95.706 165.344 98.9847 164.819 101.951 162.811L100.355 95.35L92.2514 95.4593L91.7603 162.701Z" fill="#14CC5E"/>
<path d="M40.4097 92.6421L40.9306 96.9716L152.408 97.4355L153.971 90.1681L40.4097 92.6421Z" fill="#14CC5E"/>
</g>
</svg>
